<?xml version="1.0" encoding="UTF-8" standalone="no"?>
<!DOCTYPE svg PUBLIC "-//W3C//DTD SVG 1.1//EN" "http://www.w3.org/Graphics/SVG/1.1/DTD/svg11.dtd">
<svg xmlns="http://www.w3.org/2000/svg" version="1.1" viewBox="0 0 400 400">
<g stroke-width="2.0" fill="none" stroke-linecap="butt">
<path stroke="#2a2934" vector-effect="non-scaling-stroke" d="
  M 295.75 0.21
  Q 294.55 0.22 295.34 0.92
  Q 310.43 14.24 320.69 31.56
  Q 321.96 33.72 321.04 36.75"
/>
<path stroke="#22212b" vector-effect="non-scaling-stroke" d="
  M 304.50 35.46
  L 301.55 32.43
  Q 300.37 31.21 301.02 32.76
  Q 301.46 33.81 302.16 34.90
  A 1.88 1.51 -67.2 0 1 302.42 35.81
  Q 302.44 37.46 303.44 39.56
  Q 304.45 41.70 306.54 49.41
  Q 307.66 53.51 307.72 54.23
  Q 307.89 56.40 307.25 59.25
  Q 306.50 62.56 307.21 70.50"
/>
<path stroke="#2a2934" vector-effect="non-scaling-stroke" d="
  M 305.29 89.75
  Q 305.29 90.56 304.70 90.90
  Q 304.07 91.27 303.99 91.35
  Q 300.35 94.62 298.34 99.05
  Q 297.98 99.84 296.99 101.43
  Q 296.22 102.64 295.93 104.01
  Q 295.61 105.50 296.57 107.84
  Q 298.05 111.45 298.66 115.29
  Q 299.59 121.12 299.59 121.15
  Q 300.80 127.04 301.98 132.93
  Q 302.37 134.84 302.59 138.12
  Q 302.77 140.74 303.30 143.31
  Q 304.20 147.68 304.29 150.41
  Q 304.40 153.44 304.57 156.46
  Q 304.74 159.58 305.67 162.39
  Q 307.37 167.48 309.48 172.43
  Q 310.61 175.10 312.84 181.41
  Q 314.44 185.96 316.81 190.19
  Q 317.14 190.77 316.79 192.00"
/>
<path stroke="#22212b" vector-effect="non-scaling-stroke" d="
  M 317.04 195.50
  Q 316.54 198.03 317.56 200.69
  Q 321.96 212.06 328.44 221.56
  Q 331.56 226.14 326.79 229.25"
/>
<path stroke="#22212b" vector-effect="non-scaling-stroke" d="
  M 322.00 229.21
  Q 318.00 228.11 315.78 224.71
  Q 312.99 220.42 310.52 215.95
  Q 310.43 215.81 310.30 215.71
  Q 309.53 215.16 309.99 216.01
  Q 312.93 221.48 316.18 226.76
  Q 317.77 229.35 319.01 232.68
  Q 319.93 235.14 321.44 238.81
  Q 328.01 254.85 330.44 273.56
  Q 331.61 282.59 330.83 302.53
  Q 330.83 302.59 330.40 306.42
  Q 330.17 308.45 330.54 310.50"
/>
<path stroke="#22212b" vector-effect="non-scaling-stroke" d="
  M 299.50 350.29
  Q 310.73 322.79 304.01 293.75
  Q 303.87 293.16 303.65 293.07
  Q 303.17 292.89 303.35 293.69
  Q 309.61 321.86 299.13 348.66
  Q 298.83 349.43 299.04 350.25"
/>
<path stroke="#22212b" vector-effect="non-scaling-stroke" d="
  M 267.29 370.25
  Q 268.40 364.18 269.90 358.20
  Q 271.99 349.90 272.57 346.17
  Q 275.54 327.36 274.15 308.26
  Q 273.89 304.70 273.53 307.49
  Q 273.50 307.74 273.52 308.02
  Q 275.54 338.54 266.50 367.71"
/>
<path stroke="#22212b" vector-effect="non-scaling-stroke" d="
  M 259.75 375.29
  Q 254.97 379.33 249.96 383.06
  Q 249.14 383.68 246.73 385.01
  Q 245.40 385.75 243.50 387.00
  Q 241.94 388.03 240.51 387.14
  Q 239.56 386.55 239.22 384.92
  Q 235.43 366.49 233.25 347.80
  Q 232.78 343.69 232.01 338.74
  Q 231.30 334.22 230.77 329.68
  Q 229.97 322.95 229.16 319.00
  Q 228.07 313.72 226.75 308.48
  Q 226.36 306.95 225.85 308.45
  Q 224.55 312.25 223.22 316.28
  Q 222.06 319.80 220.49 324.05
  Q 211.17 349.23 205.53 375.51
  Q 204.54 380.12 203.99 384.81
  Q 203.87 385.87 203.00 386.50"
/>
<path stroke="#22212b" vector-effect="non-scaling-stroke" d="
  M 203.00 386.50
  Q 196.70 379.52 191.75 371.52
  Q 179.38 351.58 172.84 329.13
  Q 170.74 321.89 170.11 319.39
  Q 168.88 314.48 168.31 309.42
  Q 167.97 306.40 167.25 309.35
  Q 164.52 320.45 162.09 332.97
  Q 159.23 347.73 158.73 362.76
  Q 158.35 374.40 155.77 385.65
  A 2.05 2.05 -81.2 0 1 153.77 387.25
  Q 150.15 387.25 146.80 385.97
  Q 139.95 383.36 134.25 378.75
  Q 133.26 377.95 132.50 378.29"
/>
<path stroke="#22212b" vector-effect="non-scaling-stroke" d="
  M 124.71 370.00
  Q 117.49 352.57 116.82 333.75
  Q 116.60 327.85 116.60 327.74
  Q 116.17 318.57 116.50 315.50
  Q 116.71 313.56 116.11 314.17
  A 1.46 0.97 76.4 0 0 115.79 315.05
  Q 115.30 329.56 116.88 343.99
  Q 118.04 354.63 121.19 363.06
  Q 123.28 368.67 123.71 370.25"
/>
<path stroke="#22212b" vector-effect="non-scaling-stroke" d="
  M 123.71 373.00
  Q 120.23 373.86 117.32 372.24
  Q 114.48 370.67 114.41 370.63
  Q 104.72 366.14 97.90 357.83
  Q 95.18 354.53 92.50 351.20
  Q 92.23 350.86 92.06 351.30
  L 91.71 352.25"
/>
<path stroke="#22212b" vector-effect="non-scaling-stroke" d="
  M 91.50 352.29
  Q 89.49 352.08 90.40 350.60
  A 1.21 0.83 4.2 0 1 91.19 350.14
  Q 92.33 349.95 91.31 349.10
  Q 90.88 348.73 90.68 348.43
  Q 88.62 345.33 87.75 341.25
  Q 83.54 321.55 83.98 302.26
  Q 83.99 301.79 83.86 301.59
  Q 83.47 300.94 83.41 301.92
  Q 81.98 326.64 89.25 350.25
  Q 89.47 350.97 88.71 352.75"
/>
<path stroke="#22212b" vector-effect="non-scaling-stroke" d="
  M 84.71 349.25
  Q 84.73 347.49 84.15 347.14
  Q 82.88 346.38 81.97 345.21
  Q 71.09 331.25 67.60 316.73
  Q 59.71 283.95 68.45 251.43
  Q 68.50 251.25 68.48 251.07
  Q 68.19 248.95 67.94 251.19
  Q 67.81 252.32 66.79 252.25"
/>
<path stroke="#22212b" vector-effect="non-scaling-stroke" d="
  M 70.00 232.21
  Q 71.27 231.19 71.81 230.06
  Q 74.60 224.28 79.18 213.90
  A 0.37 0.24 -54.9 0 0 79.19 213.60
  Q 79.13 213.50 79.04 213.49
  A 0.43 0.22 -69.4 0 0 78.72 213.78
  Q 74.38 223.62 70.94 229.69
  Q 70.25 230.90 68.50 230.79"
/>
<path stroke="#2a2934" vector-effect="non-scaling-stroke" d="
  M 66.21 229.25
  Q 66.23 228.00 65.25 226.25
  Q 63.67 223.42 64.52 219.76
  Q 65.63 215.03 68.04 210.80
  Q 71.88 204.11 74.51 196.88
  Q 74.72 196.29 75.94 190.99
  Q 76.54 188.36 77.94 185.19
  Q 81.62 176.82 85.60 168.58
  Q 88.21 163.17 88.44 159.94
  Q 89.84 140.29 90.94 132.44
  Q 92.34 122.42 96.49 108.39
  Q 96.51 108.32 97.30 106.31
  Q 97.78 105.08 97.73 103.80
  Q 97.68 102.32 96.32 100.71
  Q 93.61 97.52 86.94 90.06
  Q 84.80 87.67 82.06 87.88
  A 0.70 0.69 -14.4 0 1 81.37 87.48
  L 80.04 84.50"
/>
<path stroke="#22212b" vector-effect="non-scaling-stroke" d="
  M 78.96 74.75
  L 79.25 56.50
  Q 79.27 55.31 80.00 52.25
  L 82.90 40.10
  Q 83.30 38.42 81.62 39.04
  Q 80.02 39.63 79.43 38.46
  A 1.22 0.89 -53.1 0 1 79.44 37.53
  Q 82.87 29.21 90.06 22.31
  Q 92.51 19.96 95.51 20.22
  Q 95.77 20.25 95.99 20.19
  Q 97.96 19.70 95.75 19.50
  Q 91.36 19.10 89.25 19.54"
/>
<path stroke="#22212b" vector-effect="non-scaling-stroke" d="
  M 80.71 15.25
  Q 81.00 14.32 80.50 13.91
  A 1.27 0.46 33.5 0 1 79.97 13.20
  Q 79.73 11.34 81.31 10.06
  Q 87.82 4.83 94.06 1.31
  Q 94.86 0.86 94.75 0.29"
/>
<path stroke="#8d6a6a" vector-effect="non-scaling-stroke" d="
  M 139.54 27.75
  Q 139.39 28.10 139.04 28.00"
/>
<path stroke="#22212b" vector-effect="non-scaling-stroke" d="
  M 139.04 28.00
  Q 135.57 31.06 131.31 36.56
  Q 124.16 45.79 117.86 57.15
  Q 117.31 58.14 117.26 59.27
  Q 116.90 67.02 116.98 74.59
  Q 116.98 74.64 117.29 77.89
  Q 117.57 80.79 116.00 83.00
  Q 112.63 87.75 111.61 90.05
  Q 101.54 112.77 98.60 137.48
  Q 96.94 151.39 98.90 165.26
  Q 100.23 174.72 102.39 184.03
  Q 104.53 193.25 108.86 201.67
  Q 112.94 209.62 120.44 214.50
  Q 123.88 216.74 127.19 217.41
  Q 128.55 217.69 127.43 218.51
  Q 120.83 223.37 114.26 227.77
  Q 108.82 231.41 105.21 236.84
  A 0.69 0.50 -40.6 0 0 105.09 237.34
  Q 105.18 237.75 105.60 237.13
  Q 107.21 234.74 109.22 232.73
  Q 110.66 231.27 113.64 229.19
  Q 125.05 221.19 129.19 217.69
  Q 135.73 212.14 145.49 200.75
  Q 150.56 194.83 156.43 189.70
  Q 158.05 188.28 160.75 187.25
  Q 172.26 182.85 183.25 180.75
  Q 188.35 179.78 194.65 179.98
  Q 199.64 180.14 204.73 179.97
  Q 214.89 179.63 223.50 182.25
  Q 231.99 184.83 240.37 187.75
  Q 245.86 189.66 249.56 194.69
  Q 255.88 203.26 264.33 213.46
  Q 268.26 218.19 272.81 221.88
  Q 279.41 227.23 286.30 232.21
  Q 286.66 232.47 286.97 232.47
  Q 287.65 232.47 287.04 232.00
  L 269.94 218.68
  A 1.11 1.10 47.6 0 1 270.01 216.87
  Q 276.25 212.86 280.71 206.73
  Q 284.16 201.98 287.31 193.77
  Q 294.29 175.61 295.00 156.75
  Q 296.06 128.44 288.49 99.69
  Q 286.56 92.34 282.07 84.78
  A 3.10 3.06 34.3 0 1 281.68 82.77
  Q 282.92 74.16 283.35 66.01
  Q 283.57 61.77 282.44 59.06
  Q 275.42 42.34 262.14 27.55
  A 0.78 0.77 -55.3 0 1 262.00 26.73
  Q 266.05 16.79 268.33 6.30
  A 0.37 0.32 -89.5 0 0 267.95 5.85
  Q 267.42 5.99 267.39 6.62
  Q 267.34 7.63 267.31 7.74
  Q 265.83 14.09 263.59 20.20
  Q 261.75 25.23 259.01 27.91
  Q 255.67 31.18 250.56 33.81
  Q 238.83 39.85 227.77 42.88
  Q 218.63 45.39 208.15 46.66
  Q 187.71 49.13 168.75 43.25
  Q 147.32 36.61 133.42 19.11
  Q 130.87 15.91 128.24 12.78
  Q 127.87 12.35 127.87 12.82
  Q 127.86 13.01 128.03 13.22
  Q 133.76 20.50 139.54 27.75"
/>
<path stroke="#6e4b43" vector-effect="non-scaling-stroke" d="
  M 139.04 28.00
  L 134.25 33.96"
/>
<path stroke="#796250" vector-effect="non-scaling-stroke" d="
  M 134.25 33.96
  Q 127.30 42.30 121.72 51.61
  Q 121.68 51.69 120.07 54.22
  Q 118.56 56.61 118.50 58.00
  Q 118.07 67.99 118.28 79.72
  Q 118.31 81.44 117.20 82.77
  Q 112.16 88.77 109.25 96.87
  Q 101.20 119.24 99.75 143.00
  Q 98.58 162.30 103.39 182.51
  Q 106.20 194.27 108.68 199.37
  Q 112.66 207.51 120.13 213.35
  Q 123.18 215.72 127.69 216.35
  A 2.33 2.32 28.6 0 0 129.51 215.82
  Q 134.82 211.34 139.18 206.45
  Q 146.50 198.27 154.02 190.27
  Q 156.36 187.77 160.69 186.19
  Q 175.15 180.88 187.50 178.96"
/>
<path stroke="#6c4a3e" vector-effect="non-scaling-stroke" d="
  M 187.50 178.96
  L 202.25 178.71"
/>
<path stroke="#796250" vector-effect="non-scaling-stroke" d="
  M 202.25 178.71
  Q 214.19 178.65 225.65 181.94
  Q 231.69 183.67 237.74 185.38
  Q 243.64 187.05 247.78 191.08
  Q 248.23 191.52 254.74 199.91
  Q 260.84 207.76 267.47 215.67
  A 1.27 1.27 -35.2 0 0 269.09 215.95
  Q 280.13 209.43 285.10 197.04
  Q 295.47 171.17 293.89 143.24
  Q 292.48 118.26 285.37 94.29
  Q 284.06 89.86 281.72 86.48
  Q 280.43 84.60 280.71 82.35
  Q 281.70 74.33 282.13 66.53
  Q 282.29 63.80 281.98 61.98
  Q 281.57 59.60 280.69 57.56
  Q 274.01 42.13 262.44 29.36
  Q 262.39 29.30 261.75 28.46
  Q 260.74 27.13 259.71 28.75"
/>
<path stroke="#6e4b43" vector-effect="non-scaling-stroke" d="
  M 259.71 28.75
  Q 243.70 40.62 222.56 45.31
  Q 202.86 49.68 184.00 47.50
  Q 158.98 44.60 139.54 27.75"
/>
<path stroke="#e2aa8a" vector-effect="non-scaling-stroke" d="
  M 202.25 178.71
  Q 202.67 177.28 204.25 177.25
  Q 206.44 177.21 205.94 174.31
  Q 205.62 172.47 206.25 170.71"
/>
<path stroke="#796250" vector-effect="non-scaling-stroke" d="
  M 206.25 170.71
  Q 213.05 170.62 217.50 170.25
  Q 221.73 169.90 223.01 166.69
  Q 223.14 166.37 224.10 160.91
  Q 225.21 154.55 225.00 152.25
  Q 224.86 150.76 224.15 151.64
  Q 223.94 151.90 223.89 152.31
  Q 223.21 157.40 222.71 162.51
  Q 222.40 165.69 221.72 166.84
  Q 220.42 169.04 217.50 169.25
  Q 216.42 169.33 211.50 169.21"
/>
<path stroke="#e2aa8a" vector-effect="non-scaling-stroke" d="
  M 211.50 169.21
  Q 214.77 164.19 212.51 159.83
  Q 211.06 157.04 207.05 154.63
  Q 203.75 152.65 199.98 151.57
  Q 195.13 150.18 191.81 146.44
  Q 188.81 143.05 190.06 139.81
  Q 192.27 134.11 194.00 128.25
  Q 194.77 125.64 192.71 125.00"
/>
<path stroke="#816958" vector-effect="non-scaling-stroke" d="
  M 192.71 125.00
  Q 193.87 124.19 193.54 123.25
  A 0.37 0.33 -33.5 0 0 192.95 123.17
  Q 186.98 129.02 183.71 136.75"
/>
<path stroke="#e2aa8a" vector-effect="non-scaling-stroke" d="
  M 183.71 136.75
  Q 178.42 148.00 180.44 159.81
  Q 181.22 164.40 184.99 167.77
  A 0.78 0.77 -69.5 0 1 185.25 168.35
  L 185.25 168.71"
/>
<path stroke="#816958" vector-effect="non-scaling-stroke" d="
  M 185.25 168.71
  Q 181.35 167.98 177.43 167.39
  Q 176.89 167.30 176.44 167.31
  Q 173.73 167.35 176.06 168.54
  Q 176.47 168.74 177.00 168.83
  Q 181.51 169.53 186.00 170.29"
/>
<path stroke="#e2aa8a" vector-effect="non-scaling-stroke" d="
  M 186.00 170.29
  L 187.50 178.96"
/>
<path stroke="#6c4a3e" vector-effect="non-scaling-stroke" d="
  M 211.50 169.21
  Q 208.04 169.17 206.44 169.69
  Q 205.52 169.98 206.25 170.71"
/>
<path stroke="#735247" vector-effect="non-scaling-stroke" d="
  M 186.00 170.29
  Q 187.99 169.31 185.25 168.71"
/>
<path stroke="#e4aa8f" vector-effect="non-scaling-stroke" d="
  M 259.71 28.75
  Q 259.65 29.59 260.13 30.16
  A 0.59 0.51 46.2 0 1 260.17 30.88
  Q 253.07 39.04 245.93 47.18
  Q 243.30 50.19 240.69 51.44
  Q 231.73 55.72 220.51 57.09
  Q 196.89 59.99 174.41 53.58
  Q 164.64 50.79 157.56 47.80
  Q 149.32 44.32 141.94 39.06
  Q 140.07 37.73 134.25 33.96"
/>
<path stroke="#735247" vector-effect="non-scaling-stroke" d="
  M 192.71 125.00
  L 183.71 136.75"
/>
<path stroke="#22212b" vector-effect="non-scaling-stroke" d="
  M 200.7134 181.3804
  A 1.28 0.66 -11.7 0 0 199.3262 180.9937
  A 1.28 0.66 -11.7 0 0 198.2066 181.8996
  A 1.28 0.66 -11.7 0 0 199.5938 182.2863
  A 1.28 0.66 -11.7 0 0 200.7134 181.3804"
/>
<path stroke="#8e6c6d" vector-effect="non-scaling-stroke" d="
  M 174.00 199.29
  Q 173.37 199.90 173.29 200.75"
/>
<path stroke="#22212b" vector-effect="non-scaling-stroke" d="
  M 173.29 200.75
  Q 172.27 201.59 169.06 203.56
  Q 159.15 209.65 152.69 220.19
  Q 151.50 222.12 151.04 223.64
  Q 150.49 225.45 151.84 227.04
  Q 154.30 229.97 158.07 229.79
  Q 160.65 229.67 163.63 227.83
  Q 166.38 226.11 168.19 223.94
  Q 172.70 218.49 178.40 215.42
  Q 183.22 212.83 190.88 211.75
  Q 203.20 210.03 213.69 212.81
  Q 219.10 214.25 224.04 219.22
  Q 227.57 222.78 228.35 223.38
  Q 230.74 225.21 233.48 226.54
  Q 239.98 229.69 245.05 224.58
  A 0.42 0.42 50.1 0 1 245.70 224.64
  L 256.50 241.03
  A 0.89 0.53 68.3 0 0 257.01 241.42
  Q 257.42 241.48 257.07 240.75
  Q 254.34 235.06 250.31 230.19
  Q 248.87 228.44 245.50 222.27
  Q 242.72 217.19 240.63 214.42
  Q 236.58 209.07 231.71 204.48
  Q 231.54 204.32 225.50 198.32
  Q 216.89 189.78 205.05 188.38
  Q 197.01 187.44 188.70 190.33
  Q 180.74 193.09 173.99 198.48
  Q 173.41 198.94 174.00 199.29"
/>
<path stroke="#6f4d46" vector-effect="non-scaling-stroke" d="
  M 173.29 200.75
  Q 190.71 194.19 209.01 196.52
  Q 214.82 197.26 217.62 197.85
  Q 221.90 198.74 225.92 200.59
  Q 226.99 201.08 226.68 200.21
  Q 226.59 199.96 226.34 199.72
  Q 217.08 190.62 205.00 189.50
  Q 187.78 187.90 174.00 199.29"
/>
<path stroke="#22212b" vector-effect="non-scaling-stroke" d="
  M 203.27 231.84
  Q 202.14 240.20 204.20 247.79
  Q 204.39 248.48 204.68 248.03
  Q 204.79 247.86 204.75 247.50
  Q 203.93 239.11 203.61 231.85
  Q 203.53 229.91 203.27 231.84"
/>
<path stroke="#22212b" vector-effect="non-scaling-stroke" d="
  M 112.9818 231.8060
  A 0.26 0.26 0.0 0 0 112.9364 231.4411
  L 112.7470 231.2937
  A 0.26 0.26 0.0 0 0 112.3821 231.3391
  L 106.0182 239.5140
  A 0.26 0.26 0.0 0 0 106.0636 239.8789
  L 106.2530 240.0263
  A 0.26 0.26 0.0 0 0 106.6179 239.9809
  L 112.9818 231.8060"
/>
<path stroke="#22212b" vector-effect="non-scaling-stroke" d="
  M 259.5136 234.1288
  A 0.39 0.39 0.0 0 0 258.9667 234.0577
  L 258.9350 234.0821
  A 0.39 0.39 0.0 0 0 258.8639 234.6291
  L 265.0264 242.6312
  A 0.39 0.39 0.0 0 0 265.5733 242.7023
  L 265.6050 242.6779
  A 0.39 0.39 0.0 0 0 265.6761 242.1309
  L 259.5136 234.1288"
/>
<path stroke="#22212b" vector-effect="non-scaling-stroke" d="
  M 131.94 236.19
  Q 129.57 239.87 128.81 242.77
  A 0.49 0.29 -67.8 0 0 128.87 243.20
  Q 129.01 243.33 129.18 243.19
  Q 129.30 243.10 129.37 242.89
  Q 130.78 238.76 133.22 235.16
  Q 133.60 234.59 133.04 234.96
  Q 132.50 235.31 131.94 236.19"
/>
<path stroke="#22212b" vector-effect="non-scaling-stroke" d="
  M 134.2138 239.5678
  A 0.26 0.26 0.0 0 0 134.1342 239.2088
  L 134.0161 239.1336
  A 0.26 0.26 0.0 0 0 133.6571 239.2132
  L 126.5862 250.3122
  A 0.26 0.26 0.0 0 0 126.6658 250.6712
  L 126.7839 250.7464
  A 0.26 0.26 0.0 0 0 127.1429 250.6668
  L 134.2138 239.5678"
/>
<path stroke="#22212b" vector-effect="non-scaling-stroke" d="
  M 187.30 257.15
  Q 184.10 270.51 186.58 283.99
  Q 186.65 284.38 186.81 284.43
  A 0.36 0.20 89.0 0 0 187.03 284.02
  Q 184.59 263.12 192.07 243.50
  Q 192.19 243.18 192.26 242.86
  Q 193.33 238.31 191.50 242.50
  Q 189.96 246.04 187.30 257.15"
/>
<path stroke="#22212b" vector-effect="non-scaling-stroke" d="
  M 198.2608 242.4895
  A 0.27 0.27 0.0 0 0 198.0845 242.1508
  L 197.9319 242.1027
  A 0.27 0.27 0.0 0 0 197.5932 242.2790
  L 194.1592 253.1705
  A 0.27 0.27 0.0 0 0 194.3355 253.5092
  L 194.4881 253.5573
  A 0.27 0.27 0.0 0 0 194.8268 253.3810
  L 198.2608 242.4895"
/>
<path stroke="#22212b" vector-effect="non-scaling-stroke" d="
  M 214.05 271.32
  Q 212.28 279.15 209.15 286.59
  Q 209.06 286.82 209.01 287.04
  Q 208.39 289.71 209.47 287.39
  Q 212.73 280.38 214.59 272.94
  Q 216.42 265.62 215.79 258.92
  Q 215.13 251.79 212.63 244.99
  Q 212.26 243.98 211.95 244.35
  A 0.98 0.58 63.4 0 0 211.89 245.18
  Q 214.14 252.19 214.86 259.46
  Q 215.43 265.25 214.05 271.32"
/>
<path stroke="#22212b" vector-effect="non-scaling-stroke" d="
  M 269.93 257.30
  Q 273.22 268.43 274.75 279.93
  Q 274.84 280.62 275.25 280.19
  Q 275.65 279.77 275.50 278.75
  Q 274.05 268.87 272.49 262.44
  Q 271.75 259.38 270.26 257.15
  Q 269.59 256.13 269.93 257.30"
/>
<path stroke="#22212b" vector-effect="non-scaling-stroke" d="
  M 123.02 262.97
  Q 118.84 273.81 117.78 285.38
  Q 117.75 285.76 117.84 286.12
  Q 118.74 289.87 118.75 285.23
  Q 118.75 284.72 118.80 284.29
  Q 120.03 273.95 123.17 264.01
  Q 123.25 263.74 123.30 263.48
  Q 123.75 261.09 123.02 262.97"
/>
<path stroke="#22212b" vector-effect="non-scaling-stroke" d="
  M 266.3746 270.1214
  A 0.27 0.27 0.0 0 0 266.0762 269.8832
  L 265.7781 269.9166
  A 0.27 0.27 0.0 0 0 265.5398 270.2151
  L 267.2654 285.5986
  A 0.27 0.27 0.0 0 0 267.5638 285.8368
  L 267.8619 285.8034
  A 0.27 0.27 0.0 0 0 268.1002 285.5049
  L 266.3746 270.1214"
/>
<path stroke="#22212b" vector-effect="non-scaling-stroke" d="
  M 271.9936 279.1635
  A 0.27 0.27 0.0 0 0 271.6969 278.9232
  L 271.3786 278.9566
  A 0.27 0.27 0.0 0 0 271.1383 279.2534
  L 272.9864 296.8365
  A 0.27 0.27 0.0 0 0 273.2831 297.0768
  L 273.6014 297.0434
  A 0.27 0.27 0.0 0 0 273.8417 296.7466
  L 271.9936 279.1635"
/>
<path stroke="#22212b" vector-effect="non-scaling-stroke" d="
  M 196.01 304.30
  Q 192.01 294.62 190.07 284.35
  Q 189.98 283.92 189.77 283.72
  Q 189.30 283.28 189.56 284.99
  Q 191.10 295.25 195.66 304.57
  Q 196.33 305.95 196.09 304.58
  Q 196.07 304.44 196.01 304.30"
/>
<path stroke="#22212b" vector-effect="non-scaling-stroke" d="
  M 123.7506 284.9919
  A 0.31 0.31 0.0 0 0 123.5241 284.6165
  L 123.4077 284.5877
  A 0.31 0.31 0.0 0 0 123.0323 284.8141
  L 120.0294 296.9481
  A 0.31 0.31 0.0 0 0 120.2559 297.3235
  L 120.3723 297.3523
  A 0.31 0.31 0.0 0 0 120.7477 297.1259
  L 123.7506 284.9919"
/>
<path stroke="#796250" vector-effect="non-scaling-stroke" d="
  M 179.35 80.13
  Q 177.18 80.05 175.64 78.52
  Q 172.72 75.64 169.52 71.73
  Q 169.24 71.39 168.99 71.36
  Q 168.43 71.31 168.78 72.00
  Q 170.76 75.92 173.98 78.79
  Q 175.96 80.55 178.67 80.98
  Q 181.31 81.40 184.00 81.33
  Q 185.01 81.30 184.73 80.72
  A 1.02 0.73 -7.3 0 0 183.93 80.29
  L 179.35 80.13"
/>
<path stroke="#816958" vector-effect="non-scaling-stroke" d="
  M 210.38 81.88
  Q 211.58 82.04 212.79 82.04
  Q 213.57 82.04 215.20 82.13
  Q 218.62 82.30 221.00 80.25
  Q 224.24 77.46 227.94 72.19
  Q 228.23 71.77 227.98 71.53
  A 0.58 0.44 -47.9 0 0 227.25 71.67
  Q 224.19 75.15 221.02 78.52
  Q 219.19 80.47 216.66 80.58
  Q 214.00 80.69 213.85 80.71
  Q 212.31 80.87 210.75 80.76
  Q 208.45 80.60 209.58 81.54
  Q 209.90 81.81 210.38 81.88"
/>
<path stroke="#e3ac8c" vector-effect="non-scaling-stroke" d="
  M 144.50 94.96
  Q 144.89 95.61 145.50 96.04"
/>
<path stroke="#816958" vector-effect="non-scaling-stroke" d="
  M 145.50 96.04
  Q 153.38 100.34 161.44 104.31
  Q 162.85 105.01 163.79 104.50"
/>
<path stroke="#e3ac8c" vector-effect="non-scaling-stroke" d="
  M 163.79 104.50
  Q 166.85 103.26 165.90 106.51
  A 1.19 1.19 37.5 0 0 166.02 107.42
  Q 167.09 109.30 166.25 111.29"
/>
<path stroke="#816958" vector-effect="non-scaling-stroke" d="
  M 166.25 111.29
  Q 157.87 107.90 148.80 108.06
  Q 147.95 108.08 148.55 108.67
  Q 150.37 110.46 148.06 110.46
  A 1.13 0.89 -14.3 0 1 147.21 110.08
  Q 146.92 109.70 146.84 109.19
  A 0.57 0.50 83.8 0 0 146.31 108.71
  Q 138.42 109.18 132.88 114.46
  Q 131.19 116.06 131.23 117.65
  Q 131.29 119.82 133.78 121.01
  Q 138.46 123.24 143.58 123.66
  Q 147.80 124.00 148.91 124.02
  Q 151.62 124.07 154.25 123.21"
/>
<path stroke="#988177" vector-effect="non-scaling-stroke" d="
  M 154.25 123.21
  Q 154.76 123.52 155.81 123.31
  Q 164.49 121.57 168.94 120.19
  Q 170.27 119.77 170.75 118.04"
/>
<path stroke="#816958" vector-effect="non-scaling-stroke" d="
  M 170.75 118.04
  Q 171.28 117.80 171.29 117.25"
/>
<path stroke="#e3ac8c" vector-effect="non-scaling-stroke" d="
  M 171.29 117.25
  Q 176.08 115.89 182.56 113.31
  Q 187.00 111.55 188.75 107.46"
/>
<path stroke="#816958" vector-effect="non-scaling-stroke" d="
  M 188.75 107.46
  Q 190.62 108.39 192.68 108.44
  A 0.46 0.37 -7.5 0 0 193.16 107.94
  Q 193.01 107.54 192.44 107.31
  Q 187.76 105.46 185.00 104.71"
/>
<path stroke="#e3ac8c" vector-effect="non-scaling-stroke" d="
  M 185.00 104.71
  Q 185.23 103.28 185.80 101.96
  Q 186.51 100.31 186.68 99.29
  Q 187.88 92.19 188.46 84.99
  Q 188.48 84.74 188.81 84.10
  L 189.75 82.29"
/>
<path stroke="#816958" vector-effect="non-scaling-stroke" d="
  M 189.75 82.29
  L 199.00 82.54"
/>
<path stroke="#e3ac8c" vector-effect="non-scaling-stroke" d="
  M 199.00 82.54
  L 198.96 83.50"
/>
<path stroke="#988177" vector-effect="non-scaling-stroke" d="
  M 198.96 83.50
  Q 198.36 83.88 198.31 84.31
  Q 198.01 87.23 198.00 93.00
  Q 198.00 94.40 198.75 94.46"
/>
<path stroke="#e3ac8c" vector-effect="non-scaling-stroke" d="
  M 198.75 94.46
  Q 200.09 94.92 200.92 96.07
  Q 205.35 102.24 211.04 107.25"
/>
<path stroke="#816958" vector-effect="non-scaling-stroke" d="
  M 211.04 107.25
  Q 209.45 108.92 207.82 110.55
  Q 207.52 110.86 207.47 111.18
  Q 207.37 111.91 208.21 111.75"
/>
<path stroke="#e3ac8c" vector-effect="non-scaling-stroke" d="
  M 208.21 111.75
  Q 213.55 116.89 220.94 117.41
  A 1.05 0.91 -65.1 0 0 221.74 117.05
  Q 222.84 115.78 223.46 117.50"
/>
<path stroke="#816958" vector-effect="non-scaling-stroke" d="
  M 223.46 117.50
  Q 223.41 119.22 224.79 120.22
  Q 228.21 122.72 232.25 123.32
  Q 234.52 123.65 238.22 123.91
  Q 240.92 124.10 244.25 123.75
  Q 253.87 122.74 259.44 121.44
  Q 263.19 120.56 264.34 117.48
  A 1.27 1.24 44.4 0 0 264.32 116.54
  Q 262.84 113.04 258.94 111.81
  Q 249.32 108.78 240.06 108.06
  Q 237.24 107.85 231.79 109.75"
/>
<path stroke="#e3ac8c" vector-effect="non-scaling-stroke" d="
  M 231.79 109.75
  L 231.20 109.47
  A 0.97 0.97 -82.9 0 1 230.65 108.76
  Q 230.28 106.77 230.75 104.79"
/>
<path stroke="#816958" vector-effect="non-scaling-stroke" d="
  M 230.75 104.79
  L 236.25 102.71"
/>
<path stroke="#cc9c86" vector-effect="non-scaling-stroke" d="
  M 236.25 102.71
  Q 238.09 103.40 239.50 102.58
  Q 241.63 101.34 241.73 101.30
  Q 246.63 99.44 250.91 96.38
  Q 251.20 96.18 251.33 95.88
  Q 251.46 95.57 251.54 95.25"
/>
<path stroke="#816958" vector-effect="non-scaling-stroke" d="
  M 251.54 95.25
  Q 252.92 95.22 254.31 96.44
  Q 255.19 97.20 259.17 99.59
  Q 261.95 101.26 264.13 99.90
  Q 265.76 98.88 267.15 96.88
  Q 268.46 95.00 268.24 92.55
  A 1.47 1.27 23.6 0 0 267.84 91.71
  Q 262.36 86.18 255.94 81.78
  Q 254.13 80.53 252.38 80.79
  Q 250.12 81.13 247.19 82.44
  Q 241.52 84.95 223.04 91.86
  Q 219.05 93.36 216.06 91.19
  Q 214.54 90.08 209.25 85.21"
/>
<path stroke="#e3ac8c" vector-effect="non-scaling-stroke" d="
  M 209.25 85.21
  Q 206.51 84.92 206.21 82.25"
/>
<path stroke="#816958" vector-effect="non-scaling-stroke" d="
  M 206.21 82.25
  Q 207.16 80.60 205.25 80.70
  Q 196.63 81.14 188.00 80.77
  A 0.75 0.45 3.2 0 0 187.24 81.17
  Q 187.21 81.45 187.54 81.75"
/>
<path stroke="#e3ac8c" vector-effect="non-scaling-stroke" d="
  M 187.54 81.75
  Q 187.58 83.96 185.50 84.29"
/>
<path stroke="#816958" vector-effect="non-scaling-stroke" d="
  M 185.50 84.29
  Q 184.78 84.48 184.32 85.07
  Q 181.75 88.42 178.24 90.52
  Q 174.90 92.50 171.93 92.13
  Q 168.63 91.72 165.69 89.06
  Q 161.80 85.55 153.44 80.04
  Q 150.80 78.30 150.40 78.18
  Q 148.63 77.66 146.56 79.06
  Q 139.31 83.99 132.47 89.48
  Q 129.90 91.55 131.25 95.00
  Q 132.24 97.53 134.19 98.47
  Q 135.82 99.25 138.25 98.28
  Q 141.54 96.97 144.50 94.96"
/>
<path stroke="#745449" vector-effect="non-scaling-stroke" d="
  M 185.50 84.29
  Q 185.83 84.63 185.56 85.31
  Q 182.05 94.38 175.32 100.33
  Q 173.27 102.14 171.77 102.62
  Q 169.48 103.36 167.31 102.19
  Q 158.70 97.55 149.83 92.81
  A 1.78 1.58 42.0 0 0 148.19 92.80
  L 144.50 94.96"
/>
<path stroke="#745449" vector-effect="non-scaling-stroke" d="
  M 185.00 104.71
  Q 183.58 104.95 184.95 105.53
  Q 186.92 106.37 188.75 107.46"
/>
<path stroke="#745449" vector-effect="non-scaling-stroke" d="
  M 171.29 117.25
  Q 169.81 113.43 166.25 111.29"
/>
<path stroke="#745449" vector-effect="non-scaling-stroke" d="
  M 163.79 104.50
  Q 163.67 103.83 162.81 103.44
  Q 158.90 101.68 146.75 95.75
  Q 146.20 95.48 145.50 96.04"
/>
<path stroke="#2a2934" vector-effect="non-scaling-stroke" d="
  M 170.75 118.04
  L 170.54 118.00"
/>
<path stroke="#7f776a" vector-effect="non-scaling-stroke" d="
  M 170.54 118.00
  Q 168.58 113.23 163.52 111.93
  Q 160.20 111.08 156.81 110.52
  Q 156.37 110.45 155.92 110.13
  Q 154.64 109.25 155.00 111.00
  Q 156.08 116.21 154.29 122.50"
/>
<path stroke="#2a2934" vector-effect="non-scaling-stroke" d="
  M 154.29 122.50
  L 154.25 123.21"
/>
<path stroke="#745449" vector-effect="non-scaling-stroke" d="
  M 206.21 82.25
  Q 202.58 81.68 199.00 82.54"
/>
<path stroke="#745449" vector-effect="non-scaling-stroke" d="
  M 189.75 82.29
  L 187.54 81.75"
/>
<path stroke="#978e89" vector-effect="non-scaling-stroke" d="
  M 170.54 118.00
  Q 169.98 119.39 168.69 119.69
  Q 162.90 121.02 154.29 122.50"
/>
<path stroke="#c08776" vector-effect="non-scaling-stroke" d="
  M 237.75 99.46
  Q 238.29 100.83 236.75 101.21"
/>
<path stroke="#745449" vector-effect="non-scaling-stroke" d="
  M 236.75 101.21
  Q 233.54 102.38 230.60 104.13
  Q 230.00 104.49 230.75 104.79"
/>
<path stroke="#745449" vector-effect="non-scaling-stroke" d="
  M 231.79 109.75
  Q 227.15 111.67 224.07 115.57
  Q 223.40 116.41 223.46 117.50"
/>
<path stroke="#745449" vector-effect="non-scaling-stroke" d="
  M 208.21 111.75
  L 211.93 108.39
  A 1.60 1.10 -24.7 0 0 212.42 107.57
  Q 212.70 105.99 211.04 107.25"
/>
<path stroke="#8c6c67" vector-effect="non-scaling-stroke" d="
  M 198.75 94.46
  Q 199.63 92.11 199.75 87.00
  Q 199.81 84.44 198.96 83.50"
/>
<path stroke="#5e4443" vector-effect="non-scaling-stroke" d="
  M 251.54 95.25
  Q 249.16 94.93 246.91 95.88
  Q 242.38 97.79 237.75 99.46"
/>
<path stroke="#745449" vector-effect="non-scaling-stroke" d="
  M 237.75 99.46
  Q 231.04 102.37 223.75 103.03
  Q 216.34 103.70 212.88 97.34
  Q 210.14 92.31 208.68 86.77
  Q 208.39 85.66 209.25 85.21"
/>
<path stroke="#5e4443" vector-effect="non-scaling-stroke" d="
  M 236.25 102.71
  Q 237.92 102.20 236.75 101.21"
/>
<path stroke="#8e766c" vector-effect="non-scaling-stroke" d="
  M 239.57 132.02
  Q 235.33 131.27 231.15 130.23
  Q 229.39 129.79 230.07 130.66
  Q 230.27 130.92 230.64 131.08
  Q 245.08 137.12 259.15 130.33
  Q 259.46 130.18 259.65 129.94
  Q 260.60 128.79 258.78 129.47
  Q 253.55 131.43 248.09 132.24
  Q 244.13 132.82 239.57 132.02"
/>
<path stroke="#8e766c" vector-effect="non-scaling-stroke" d="
  M 148.06 132.69
  Q 142.62 131.97 135.23 129.82
  Q 134.81 129.69 134.77 129.92
  A 0.48 0.29 21.0 0 0 135.07 130.31
  Q 150.40 137.70 166.06 130.06
  Q 166.52 129.84 166.26 129.63
  A 0.71 0.48 -26.5 0 0 165.73 129.56
  Q 161.20 130.63 156.72 131.88
  Q 152.00 133.21 148.06 132.69"
/>
<path stroke="#1f1e29" vector-effect="non-scaling-stroke" d="
  M 157.19 83.94
  Q 153.90 81.32 150.17 79.30
  A 1.82 1.80 41.8 0 0 148.28 79.40
  Q 141.71 83.92 135.19 88.86
  Q 132.71 90.73 132.13 91.93
  Q 130.98 94.31 133.24 96.76
  Q 135.68 99.41 138.57 97.33
  Q 142.99 94.17 148.00 91.26
  A 2.01 2.01 51.2 0 1 150.39 91.52
  Q 152.67 93.61 155.44 94.81
  Q 160.62 97.07 165.43 100.07
  Q 167.32 101.26 169.43 101.49
  Q 171.36 101.71 173.26 100.39
  Q 177.93 97.16 180.67 91.85
  A 0.24 0.24 -76.3 0 0 180.46 91.50
  Q 178.90 91.50 177.52 92.23
  Q 173.48 94.34 169.31 92.69
  Q 167.97 92.16 162.59 88.24
  Q 162.56 88.22 157.19 83.94"
/>
<path stroke="#2a2934" vector-effect="non-scaling-stroke" d="
  M 215.25 92.71
  L 211.14 88.38
  A 0.28 0.22 48.3 0 0 210.82 88.32
  L 210.66 88.44
  A 0.61 0.32 61.1 0 0 210.67 89.06
  L 212.54 93.00"
/>
<path stroke="#1f1e29" vector-effect="non-scaling-stroke" d="
  M 212.54 93.00
  Q 214.67 102.01 223.09 101.45
  Q 227.08 101.19 227.30 101.18
  Q 230.81 101.05 233.31 100.06
  Q 239.13 97.76 244.90 95.34
  Q 247.61 94.20 250.47 94.13
  Q 252.57 94.09 254.67 95.48
  Q 256.59 96.75 258.42 98.13
  Q 261.36 100.36 264.44 97.94
  Q 269.43 93.99 264.48 90.04
  Q 261.06 87.32 257.56 84.69
  Q 255.67 83.26 253.94 82.56
  Q 252.28 81.89 250.09 82.67
  Q 237.21 87.21 224.69 92.70
  Q 221.87 93.93 218.81 93.94
  A 1.63 1.19 55.5 0 1 217.92 93.63
  Q 216.73 92.78 215.25 92.71"
/>
<path stroke="#373648" vector-effect="non-scaling-stroke" d="
  M 212.54 93.00
  L 215.25 92.71"
/>
<path stroke="#262531" vector-effect="non-scaling-stroke" d="
  M 73.54 190.25
  Q 74.71 190.45 75.25 189.25
  Q 80.59 177.31 85.83 165.32
  Q 86.90 162.88 86.99 160.25
  A 1.22 0.98 -71.4 0 0 86.67 159.38
  L 80.76 153.90
  A 0.63 0.60 -59.5 0 0 79.77 154.18
  Q 77.86 159.52 77.10 165.26
  Q 75.98 173.73 74.78 182.18
  Q 74.76 182.29 74.79 185.19
  Q 74.81 186.83 73.75 188.21"
/>
<path stroke="#76554e" vector-effect="non-scaling-stroke" d="
  M 74.04 119.50
  Q 73.46 129.51 75.40 139.32
  Q 77.64 150.68 86.84 157.45
  Q 87.24 157.74 87.28 157.25
  L 88.81 138.48
  A 1.19 1.16 -74.7 0 0 88.18 137.34
  Q 86.82 136.66 85.73 135.41
  Q 84.38 133.86 83.83 133.01
  Q 82.27 130.62 83.75 127.50
  Q 85.38 124.06 87.96 122.07
  A 0.41 0.34 -29.8 0 1 88.56 122.17
  Q 88.66 122.44 88.44 122.69
  Q 86.65 124.70 85.53 126.74
  Q 84.16 129.23 84.68 131.47
  Q 85.34 134.36 88.24 135.95
  A 0.42 0.41 23.1 0 0 88.84 135.71
  Q 93.99 119.27 85.32 104.45
  Q 83.84 101.91 81.93 104.15
  Q 78.37 108.34 77.67 113.49
  Q 77.33 116.01 75.75 117.96"
/>
<path stroke="#7c6257" vector-effect="non-scaling-stroke" d="
  M 75.75 117.96
  Q 75.86 116.77 76.16 115.63
  Q 76.49 114.33 76.61 113.32
  Q 77.38 106.85 81.06 103.06
  Q 83.79 100.26 85.94 103.31
  Q 89.48 108.34 90.69 114.96
  Q 91.11 117.26 91.79 119.50"
/>
<path stroke="#2a2934" vector-effect="non-scaling-stroke" d="
  M 91.79 119.50
  Q 92.28 124.07 92.46 119.50"
/>
<path stroke="#7c6257" vector-effect="non-scaling-stroke" d="
  M 92.46 119.50
  Q 92.45 117.61 93.05 115.81
  Q 95.02 109.85 96.51 103.70
  A 1.11 1.10 -56.6 0 0 96.33 102.79
  Q 92.60 97.79 89.00 93.25
  Q 86.12 89.62 84.50 89.25
  Q 80.61 88.36 78.38 91.65
  Q 73.53 98.77 73.66 107.50
  Q 73.75 113.50 74.04 119.50"
/>
<path stroke="#947a75" vector-effect="non-scaling-stroke" d="
  M 92.46 119.50
  L 91.79 119.50"
/>
<path stroke="#e0a690" vector-effect="non-scaling-stroke" d="
  M 75.75 117.96
  Q 75.53 119.64 74.04 119.50"
/>
<path stroke="#261b1d" vector-effect="non-scaling-stroke" d="
  M 300.50 117.54
  L 301.29 121.75"
/>
<path stroke="#7d6659" vector-effect="non-scaling-stroke" d="
  M 301.29 121.75
  Q 304.01 136.29 305.59 151.88
  Q 305.73 153.30 306.48 152.09
  Q 309.79 146.76 311.54 141.16
  Q 312.61 137.74 312.73 132.08
  Q 312.95 120.79 314.50 114.00
  Q 316.50 105.21 313.51 96.79
  Q 312.22 93.18 310.44 91.81
  Q 307.63 89.66 304.62 92.38
  Q 300.26 96.32 297.48 103.01
  Q 296.76 104.73 297.39 106.89
  L 300.50 117.54"
/>
<path stroke="#907060" vector-effect="non-scaling-stroke" d="
  M 301.29 121.75
  Q 301.88 122.00 302.50 121.96"
/>
<path stroke="#e7b295" vector-effect="non-scaling-stroke" d="
  M 302.50 121.96
  Q 303.09 121.96 303.68 121.87
  Q 304.27 121.77 304.83 121.83
  Q 309.13 122.28 311.09 118.51
  A 1.70 0.80 71.4 0 0 311.20 117.57
  L 311.04 116.25"
/>
<path stroke="#907060" vector-effect="non-scaling-stroke" d="
  M 311.04 116.25
  Q 311.35 116.06 311.54 115.74
  Q 311.69 115.49 311.67 115.08
  Q 311.26 108.33 308.14 102.22
  A 0.80 0.80 -36.1 0 0 306.86 102.02
  Q 300.97 107.96 301.00 116.75
  Q 301.00 117.56 300.50 117.54"
/>
<path stroke="#906759" vector-effect="non-scaling-stroke" d="
  M 311.04 116.25
  L 308.00 105.49
  Q 307.28 102.95 305.87 105.11
  Q 301.54 111.71 302.63 119.88
  Q 302.64 119.95 302.87 120.72
  Q 303.09 121.42 302.50 121.96"
/>
<path stroke="#7f776a" vector-effect="non-scaling-stroke" d="
  M 132.85 119.16
  Q 138.06 122.68 143.68 122.69
  A 0.37 0.37 81.5 0 0 144.04 122.21
  Q 142.46 116.72 144.28 110.57
  Q 144.49 109.86 143.81 110.14
  Q 140.84 111.33 137.95 112.35
  Q 133.88 113.79 132.35 117.51
  A 1.36 1.35 28.2 0 0 132.85 119.16"
/>
<path stroke="#7f776a" vector-effect="non-scaling-stroke" d="
  M 240.8290 109.9900
  A 1.81 0.92 -1.9 0 0 238.9895 109.1305
  A 1.81 0.92 -1.9 0 0 237.2110 110.1100
  A 1.81 0.92 -1.9 0 0 239.0505 110.9695
  A 1.81 0.92 -1.9 0 0 240.8290 109.9900"
/>
<path stroke="#7f776a" vector-effect="non-scaling-stroke" d="
  M 226.40 119.93
  Q 230.73 122.98 235.43 122.95
  A 0.36 0.36 80.7 0 0 235.77 122.47
  Q 233.83 116.98 235.44 110.82
  A 0.32 0.31 -88.8 0 0 235.07 110.43
  Q 228.82 111.78 225.75 115.97
  Q 224.05 118.28 226.40 119.93"
/>
<path stroke="#7f776a" vector-effect="non-scaling-stroke" d="
  M 255.60 112.26
  Q 251.82 111.55 247.24 110.50
  A 0.55 0.55 0.7 0 0 246.58 111.14
  Q 247.65 116.13 246.31 122.41
  A 0.36 0.34 -88.6 0 0 246.70 122.84
  L 261.26 120.25
  Q 265.02 119.58 262.80 116.40
  Q 260.57 113.20 255.60 112.26"
/>
<path stroke="#746757" vector-effect="non-scaling-stroke" d="
  M 231.34 205.42
  Q 229.32 203.43 226.74 202.28
  Q 219.80 199.18 212.25 198.21
  Q 197.56 196.33 183.00 199.00
  Q 167.95 201.76 157.53 214.54
  Q 154.94 217.72 152.61 221.10
  Q 149.75 225.24 153.75 227.50
  Q 157.45 229.59 161.69 227.69
  Q 165.68 225.89 170.01 220.77
  Q 174.35 215.62 180.26 213.19
  Q 184.84 211.32 192.37 210.35
  Q 204.03 208.86 215.43 212.71
  Q 221.38 214.72 225.58 219.42
  Q 229.54 223.86 234.90 226.19
  Q 237.11 227.15 238.86 226.93
  Q 240.99 226.67 242.76 225.28
  Q 245.59 223.08 243.31 219.94
  Q 236.42 210.42 231.34 205.42"
/>
<path stroke="#704c45" vector-effect="non-scaling-stroke" d="
  M 203.00 386.50
  Q 198.11 382.48 193.94 376.56
  Q 186.11 365.45 181.03 354.13
  Q 172.33 334.74 167.79 314.20
  Q 167.45 312.64 167.08 314.19
  Q 160.25 342.37 158.73 371.00
  Q 158.34 378.43 156.55 386.31
  A 0.58 0.57 13.8 0 0 156.97 387.00
  Q 173.68 391.49 190.75 391.74
  Q 192.04 391.76 196.73 391.42
  Q 199.74 391.21 202.75 391.46"
/>
<path stroke="#704c45" vector-effect="non-scaling-stroke" d="
  M 203.00 391.54
  Q 220.57 391.08 237.74 385.25
  A 0.68 0.67 -16.2 0 0 238.18 384.46
  Q 236.29 376.54 235.13 368.18
  Q 233.18 354.22 231.49 340.22
  Q 229.79 326.09 226.43 311.96
  Q 226.18 310.91 225.79 311.92
  Q 213.69 343.22 206.37 375.69
  Q 205.82 378.16 205.30 381.35
  Q 204.84 384.18 204.34 387.01
  A 0.39 0.37 -70.6 0 1 203.79 387.30
  Q 203.29 387.02 203.00 386.50"
/>
</g>
<path fill="#414052" d="
  M 95.56 0.00
  L 295.81 0.00
  L 295.75 0.21
  Q 294.55 0.22 295.34 0.92
  Q 310.43 14.24 320.69 31.56
  Q 321.96 33.72 321.04 36.75
  Q 320.31 37.37 318.50 37.50
  Q 310.66 38.05 304.50 35.46
  L 301.55 32.43
  Q 300.37 31.21 301.02 32.76
  Q 301.46 33.81 302.16 34.90
  A 1.88 1.51 -67.2 0 1 302.42 35.81
  Q 302.44 37.46 303.44 39.56
  Q 304.45 41.70 306.54 49.41
  Q 307.66 53.51 307.72 54.23
  Q 307.89 56.40 307.25 59.25
  Q 306.50 62.56 307.21 70.50
  Q 306.37 79.01 305.25 87.49
  Q 305.24 87.55 305.02 88.35
  Q 304.82 89.06 305.29 89.75
  Q 305.29 90.56 304.70 90.90
  Q 304.07 91.27 303.99 91.35
  Q 300.35 94.62 298.34 99.05
  Q 297.98 99.84 296.99 101.43
  Q 296.22 102.64 295.93 104.01
  Q 295.61 105.50 296.57 107.84
  Q 298.05 111.45 298.66 115.29
  Q 299.59 121.12 299.59 121.15
  Q 300.80 127.04 301.98 132.93
  Q 302.37 134.84 302.59 138.12
  Q 302.77 140.74 303.30 143.31
  Q 304.20 147.68 304.29 150.41
  Q 304.40 153.44 304.57 156.46
  Q 304.74 159.58 305.67 162.39
  Q 307.37 167.48 309.48 172.43
  Q 310.61 175.10 312.84 181.41
  Q 314.44 185.96 316.81 190.19
  Q 317.14 190.77 316.79 192.00
  L 317.04 195.50
  Q 316.54 198.03 317.56 200.69
  Q 321.96 212.06 328.44 221.56
  Q 331.56 226.14 326.79 229.25
  Q 324.39 229.89 322.00 229.21
  Q 318.00 228.11 315.78 224.71
  Q 312.99 220.42 310.52 215.95
  Q 310.43 215.81 310.30 215.71
  Q 309.53 215.16 309.99 216.01
  Q 312.93 221.48 316.18 226.76
  Q 317.77 229.35 319.01 232.68
  Q 319.93 235.14 321.44 238.81
  Q 328.01 254.85 330.44 273.56
  Q 331.61 282.59 330.83 302.53
  Q 330.83 302.59 330.40 306.42
  Q 330.17 308.45 330.54 310.50
  Q 325.51 338.42 302.42 354.70
  A 1.32 1.20 65.2 0 1 300.53 353.90
  L 299.50 350.29
  Q 310.73 322.79 304.01 293.75
  Q 303.87 293.16 303.65 293.07
  Q 303.17 292.89 303.35 293.69
  Q 309.61 321.86 299.13 348.66
  Q 298.83 349.43 299.04 350.25
  Q 293.62 358.41 291.56 361.06
  Q 282.74 372.41 268.77 376.00
  Q 266.43 376.60 266.73 374.36
  L 267.29 370.25
  Q 268.40 364.18 269.90 358.20
  Q 271.99 349.90 272.57 346.17
  Q 275.54 327.36 274.15 308.26
  Q 273.89 304.70 273.53 307.49
  Q 273.50 307.74 273.52 308.02
  Q 275.54 338.54 266.50 367.71
  Q 265.43 368.22 265.06 368.81
  Q 262.81 372.39 259.75 375.29
  Q 254.97 379.33 249.96 383.06
  Q 249.14 383.68 246.73 385.01
  Q 245.40 385.75 243.50 387.00
  Q 241.94 388.03 240.51 387.14
  Q 239.56 386.55 239.22 384.92
  Q 235.43 366.49 233.25 347.80
  Q 232.78 343.69 232.01 338.74
  Q 231.30 334.22 230.77 329.68
  Q 229.97 322.95 229.16 319.00
  Q 228.07 313.72 226.75 308.48
  Q 226.36 306.95 225.85 308.45
  Q 224.55 312.25 223.22 316.28
  Q 222.06 319.80 220.49 324.05
  Q 211.17 349.23 205.53 375.51
  Q 204.54 380.12 203.99 384.81
  Q 203.87 385.87 203.00 386.50
  Q 196.70 379.52 191.75 371.52
  Q 179.38 351.58 172.84 329.13
  Q 170.74 321.89 170.11 319.39
  Q 168.88 314.48 168.31 309.42
  Q 167.97 306.40 167.25 309.35
  Q 164.52 320.45 162.09 332.97
  Q 159.23 347.73 158.73 362.76
  Q 158.35 374.40 155.77 385.65
  A 2.05 2.05 -81.2 0 1 153.77 387.25
  Q 150.15 387.25 146.80 385.97
  Q 139.95 383.36 134.25 378.75
  Q 133.26 377.95 132.50 378.29
  Q 128.13 374.60 124.71 370.00
  Q 117.49 352.57 116.82 333.75
  Q 116.60 327.85 116.60 327.74
  Q 116.17 318.57 116.50 315.50
  Q 116.71 313.56 116.11 314.17
  A 1.46 0.97 76.4 0 0 115.79 315.05
  Q 115.30 329.56 116.88 343.99
  Q 118.04 354.63 121.19 363.06
  Q 123.28 368.67 123.71 370.25
  L 123.71 373.00
  Q 120.23 373.86 117.32 372.24
  Q 114.48 370.67 114.41 370.63
  Q 104.72 366.14 97.90 357.83
  Q 95.18 354.53 92.50 351.20
  Q 92.23 350.86 92.06 351.30
  L 91.71 352.25
  L 91.50 352.29
  Q 89.49 352.08 90.40 350.60
  A 1.21 0.83 4.2 0 1 91.19 350.14
  Q 92.33 349.95 91.31 349.10
  Q 90.88 348.73 90.68 348.43
  Q 88.62 345.33 87.75 341.25
  Q 83.54 321.55 83.98 302.26
  Q 83.99 301.79 83.86 301.59
  Q 83.47 300.94 83.41 301.92
  Q 81.98 326.64 89.25 350.25
  Q 89.47 350.97 88.71 352.75
  L 84.71 349.25
  Q 84.73 347.49 84.15 347.14
  Q 82.88 346.38 81.97 345.21
  Q 71.09 331.25 67.60 316.73
  Q 59.71 283.95 68.45 251.43
  Q 68.50 251.25 68.48 251.07
  Q 68.19 248.95 67.94 251.19
  Q 67.81 252.32 66.79 252.25
  Q 66.81 251.80 66.46 251.72
  A 0.87 0.55 -61.8 0 0 65.74 252.13
  Q 64.75 253.54 63.46 254.71
  Q 61.74 256.26 62.48 253.31
  Q 65.24 242.41 70.00 232.21
  Q 71.27 231.19 71.81 230.06
  Q 74.60 224.28 79.18 213.90
  A 0.37 0.24 -54.9 0 0 79.19 213.60
  Q 79.13 213.50 79.04 213.49
  A 0.43 0.22 -69.4 0 0 78.72 213.78
  Q 74.38 223.62 70.94 229.69
  Q 70.25 230.90 68.50 230.79
  Q 67.09 230.42 66.21 229.25
  Q 66.23 228.00 65.25 226.25
  Q 63.67 223.42 64.52 219.76
  Q 65.63 215.03 68.04 210.80
  Q 71.88 204.11 74.51 196.88
  Q 74.72 196.29 75.94 190.99
  Q 76.54 188.36 77.94 185.19
  Q 81.62 176.82 85.60 168.58
  Q 88.21 163.17 88.44 159.94
  Q 89.84 140.29 90.94 132.44
  Q 92.34 122.42 96.49 108.39
  Q 96.51 108.32 97.30 106.31
  Q 97.78 105.08 97.73 103.80
  Q 97.68 102.32 96.32 100.71
  Q 93.61 97.52 86.94 90.06
  Q 84.80 87.67 82.06 87.88
  A 0.70 0.69 -14.4 0 1 81.37 87.48
  L 80.04 84.50
  L 78.96 74.75
  L 79.25 56.50
  Q 79.27 55.31 80.00 52.25
  L 82.90 40.10
  Q 83.30 38.42 81.62 39.04
  Q 80.02 39.63 79.43 38.46
  A 1.22 0.89 -53.1 0 1 79.44 37.53
  Q 82.87 29.21 90.06 22.31
  Q 92.51 19.96 95.51 20.22
  Q 95.77 20.25 95.99 20.19
  Q 97.96 19.70 95.75 19.50
  Q 91.36 19.10 89.25 19.54
  Q 84.14 19.10 80.71 15.25
  Q 81.00 14.32 80.50 13.91
  A 1.27 0.46 33.5 0 1 79.97 13.20
  Q 79.73 11.34 81.31 10.06
  Q 87.82 4.83 94.06 1.31
  Q 94.86 0.86 94.75 0.29
  Q 95.27 0.37 95.56 0.00
  Z
  M 139.54 27.75
  Q 139.39 28.10 139.04 28.00
  Q 135.57 31.06 131.31 36.56
  Q 124.16 45.79 117.86 57.15
  Q 117.31 58.14 117.26 59.27
  Q 116.90 67.02 116.98 74.59
  Q 116.98 74.64 117.29 77.89
  Q 117.57 80.79 116.00 83.00
  Q 112.63 87.75 111.61 90.05
  Q 101.54 112.77 98.60 137.48
  Q 96.94 151.39 98.90 165.26
  Q 100.23 174.72 102.39 184.03
  Q 104.53 193.25 108.86 201.67
  Q 112.94 209.62 120.44 214.50
  Q 123.88 216.74 127.19 217.41
  Q 128.55 217.69 127.43 218.51
  Q 120.83 223.37 114.26 227.77
  Q 108.82 231.41 105.21 236.84
  A 0.69 0.50 -40.6 0 0 105.09 237.34
  Q 105.18 237.75 105.60 237.13
  Q 107.21 234.74 109.22 232.73
  Q 110.66 231.27 113.64 229.19
  Q 125.05 221.19 129.19 217.69
  Q 135.73 212.14 145.49 200.75
  Q 150.56 194.83 156.43 189.70
  Q 158.05 188.28 160.75 187.25
  Q 172.26 182.85 183.25 180.75
  Q 188.35 179.78 194.65 179.98
  Q 199.64 180.14 204.73 179.97
  Q 214.89 179.63 223.50 182.25
  Q 231.99 184.83 240.37 187.75
  Q 245.86 189.66 249.56 194.69
  Q 255.88 203.26 264.33 213.46
  Q 268.26 218.19 272.81 221.88
  Q 279.41 227.23 286.30 232.21
  Q 286.66 232.47 286.97 232.47
  Q 287.65 232.47 287.04 232.00
  L 269.94 218.68
  A 1.11 1.10 47.6 0 1 270.01 216.87
  Q 276.25 212.86 280.71 206.73
  Q 284.16 201.98 287.31 193.77
  Q 294.29 175.61 295.00 156.75
  Q 296.06 128.44 288.49 99.69
  Q 286.56 92.34 282.07 84.78
  A 3.10 3.06 34.3 0 1 281.68 82.77
  Q 282.92 74.16 283.35 66.01
  Q 283.57 61.77 282.44 59.06
  Q 275.42 42.34 262.14 27.55
  A 0.78 0.77 -55.3 0 1 262.00 26.73
  Q 266.05 16.79 268.33 6.30
  A 0.37 0.32 -89.5 0 0 267.95 5.85
  Q 267.42 5.99 267.39 6.62
  Q 267.34 7.63 267.31 7.74
  Q 265.83 14.09 263.59 20.20
  Q 261.75 25.23 259.01 27.91
  Q 255.67 31.18 250.56 33.81
  Q 238.83 39.85 227.77 42.88
  Q 218.63 45.39 208.15 46.66
  Q 187.71 49.13 168.75 43.25
  Q 147.32 36.61 133.42 19.11
  Q 130.87 15.91 128.24 12.78
  Q 127.87 12.35 127.87 12.82
  Q 127.86 13.01 128.03 13.22
  Q 133.76 20.50 139.54 27.75
  Z
  M 200.7134 181.3804
  A 1.28 0.66 -11.7 0 0 199.3262 180.9937
  A 1.28 0.66 -11.7 0 0 198.2066 181.8996
  A 1.28 0.66 -11.7 0 0 199.5938 182.2863
  A 1.28 0.66 -11.7 0 0 200.7134 181.3804
  Z
  M 174.00 199.29
  Q 173.37 199.90 173.29 200.75
  Q 172.27 201.59 169.06 203.56
  Q 159.15 209.65 152.69 220.19
  Q 151.50 222.12 151.04 223.64
  Q 150.49 225.45 151.84 227.04
  Q 154.30 229.97 158.07 229.79
  Q 160.65 229.67 163.63 227.83
  Q 166.38 226.11 168.19 223.94
  Q 172.70 218.49 178.40 215.42
  Q 183.22 212.83 190.88 211.75
  Q 203.20 210.03 213.69 212.81
  Q 219.10 214.25 224.04 219.22
  Q 227.57 222.78 228.35 223.38
  Q 230.74 225.21 233.48 226.54
  Q 239.98 229.69 245.05 224.58
  A 0.42 0.42 50.1 0 1 245.70 224.64
  L 256.50 241.03
  A 0.89 0.53 68.3 0 0 257.01 241.42
  Q 257.42 241.48 257.07 240.75
  Q 254.34 235.06 250.31 230.19
  Q 248.87 228.44 245.50 222.27
  Q 242.72 217.19 240.63 214.42
  Q 236.58 209.07 231.71 204.48
  Q 231.54 204.32 225.50 198.32
  Q 216.89 189.78 205.05 188.38
  Q 197.01 187.44 188.70 190.33
  Q 180.74 193.09 173.99 198.48
  Q 173.41 198.94 174.00 199.29
  Z
  M 203.27 231.84
  Q 202.14 240.20 204.20 247.79
  Q 204.39 248.48 204.68 248.03
  Q 204.79 247.86 204.75 247.50
  Q 203.93 239.11 203.61 231.85
  Q 203.53 229.91 203.27 231.84
  Z
  M 112.9818 231.8060
  A 0.26 0.26 0.0 0 0 112.9364 231.4411
  L 112.7470 231.2937
  A 0.26 0.26 0.0 0 0 112.3821 231.3391
  L 106.0182 239.5140
  A 0.26 0.26 0.0 0 0 106.0636 239.8789
  L 106.2530 240.0263
  A 0.26 0.26 0.0 0 0 106.6179 239.9809
  L 112.9818 231.8060
  Z
  M 259.5136 234.1288
  A 0.39 0.39 0.0 0 0 258.9667 234.0577
  L 258.9350 234.0821
  A 0.39 0.39 0.0 0 0 258.8639 234.6291
  L 265.0264 242.6312
  A 0.39 0.39 0.0 0 0 265.5733 242.7023
  L 265.6050 242.6779
  A 0.39 0.39 0.0 0 0 265.6761 242.1309
  L 259.5136 234.1288
  Z
  M 131.94 236.19
  Q 129.57 239.87 128.81 242.77
  A 0.49 0.29 -67.8 0 0 128.87 243.20
  Q 129.01 243.33 129.18 243.19
  Q 129.30 243.10 129.37 242.89
  Q 130.78 238.76 133.22 235.16
  Q 133.60 234.59 133.04 234.96
  Q 132.50 235.31 131.94 236.19
  Z
  M 134.2138 239.5678
  A 0.26 0.26 0.0 0 0 134.1342 239.2088
  L 134.0161 239.1336
  A 0.26 0.26 0.0 0 0 133.6571 239.2132
  L 126.5862 250.3122
  A 0.26 0.26 0.0 0 0 126.6658 250.6712
  L 126.7839 250.7464
  A 0.26 0.26 0.0 0 0 127.1429 250.6668
  L 134.2138 239.5678
  Z
  M 187.30 257.15
  Q 184.10 270.51 186.58 283.99
  Q 186.65 284.38 186.81 284.43
  A 0.36 0.20 89.0 0 0 187.03 284.02
  Q 184.59 263.12 192.07 243.50
  Q 192.19 243.18 192.26 242.86
  Q 193.33 238.31 191.50 242.50
  Q 189.96 246.04 187.30 257.15
  Z
  M 198.2608 242.4895
  A 0.27 0.27 0.0 0 0 198.0845 242.1508
  L 197.9319 242.1027
  A 0.27 0.27 0.0 0 0 197.5932 242.2790
  L 194.1592 253.1705
  A 0.27 0.27 0.0 0 0 194.3355 253.5092
  L 194.4881 253.5573
  A 0.27 0.27 0.0 0 0 194.8268 253.3810
  L 198.2608 242.4895
  Z
  M 214.05 271.32
  Q 212.28 279.15 209.15 286.59
  Q 209.06 286.82 209.01 287.04
  Q 208.39 289.71 209.47 287.39
  Q 212.73 280.38 214.59 272.94
  Q 216.42 265.62 215.79 258.92
  Q 215.13 251.79 212.63 244.99
  Q 212.26 243.98 211.95 244.35
  A 0.98 0.58 63.4 0 0 211.89 245.18
  Q 214.14 252.19 214.86 259.46
  Q 215.43 265.25 214.05 271.32
  Z
  M 269.93 257.30
  Q 273.22 268.43 274.75 279.93
  Q 274.84 280.62 275.25 280.19
  Q 275.65 279.77 275.50 278.75
  Q 274.05 268.87 272.49 262.44
  Q 271.75 259.38 270.26 257.15
  Q 269.59 256.13 269.93 257.30
  Z
  M 123.02 262.97
  Q 118.84 273.81 117.78 285.38
  Q 117.75 285.76 117.84 286.12
  Q 118.74 289.87 118.75 285.23
  Q 118.75 284.72 118.80 284.29
  Q 120.03 273.95 123.17 264.01
  Q 123.25 263.74 123.30 263.48
  Q 123.75 261.09 123.02 262.97
  Z
  M 266.3746 270.1214
  A 0.27 0.27 0.0 0 0 266.0762 269.8832
  L 265.7781 269.9166
  A 0.27 0.27 0.0 0 0 265.5398 270.2151
  L 267.2654 285.5986
  A 0.27 0.27 0.0 0 0 267.5638 285.8368
  L 267.8619 285.8034
  A 0.27 0.27 0.0 0 0 268.1002 285.5049
  L 266.3746 270.1214
  Z
  M 271.9936 279.1635
  A 0.27 0.27 0.0 0 0 271.6969 278.9232
  L 271.3786 278.9566
  A 0.27 0.27 0.0 0 0 271.1383 279.2534
  L 272.9864 296.8365
  A 0.27 0.27 0.0 0 0 273.2831 297.0768
  L 273.6014 297.0434
  A 0.27 0.27 0.0 0 0 273.8417 296.7466
  L 271.9936 279.1635
  Z
  M 196.01 304.30
  Q 192.01 294.62 190.07 284.35
  Q 189.98 283.92 189.77 283.72
  Q 189.30 283.28 189.56 284.99
  Q 191.10 295.25 195.66 304.57
  Q 196.33 305.95 196.09 304.58
  Q 196.07 304.44 196.01 304.30
  Z
  M 123.7506 284.9919
  A 0.31 0.31 0.0 0 0 123.5241 284.6165
  L 123.4077 284.5877
  A 0.31 0.31 0.0 0 0 123.0323 284.8141
  L 120.0294 296.9481
  A 0.31 0.31 0.0 0 0 120.2559 297.3235
  L 120.3723 297.3523
  A 0.31 0.31 0.0 0 0 120.7477 297.1259
  L 123.7506 284.9919
  Z"
/>
<path fill="#030204" d="
  M 94.75 0.29
  Q 94.86 0.86 94.06 1.31
  Q 87.82 4.83 81.31 10.06
  Q 79.73 11.34 79.97 13.20
  A 1.27 0.46 33.5 0 0 80.50 13.91
  Q 81.00 14.32 80.71 15.25
  Q 78.55 13.40 79.11 11.19
  Q 79.47 9.78 81.49 8.24
  Q 86.49 4.43 91.81 1.06
  Q 92.53 0.61 94.75 0.29
  Z"
/>
<path fill="#121115" d="
  M 295.75 0.21
  Q 297.30 0.35 298.81 1.94
  Q 306.23 9.72 311.33 15.75
  Q 316.24 21.56 317.74 23.68
  Q 320.88 28.13 322.44 32.81
  Q 323.21 35.14 321.04 36.75
  Q 321.96 33.72 320.69 31.56
  Q 310.43 14.24 295.34 0.92
  Q 294.55 0.22 295.75 0.21
  Z"
/>
<path fill="#030204" d="
  M 139.04 28.00
  L 134.25 33.96
  Q 127.30 42.30 121.72 51.61
  Q 121.68 51.69 120.07 54.22
  Q 118.56 56.61 118.50 58.00
  Q 118.07 67.99 118.28 79.72
  Q 118.31 81.44 117.20 82.77
  Q 112.16 88.77 109.25 96.87
  Q 101.20 119.24 99.75 143.00
  Q 98.58 162.30 103.39 182.51
  Q 106.20 194.27 108.68 199.37
  Q 112.66 207.51 120.13 213.35
  Q 123.18 215.72 127.69 216.35
  A 2.33 2.32 28.6 0 0 129.51 215.82
  Q 134.82 211.34 139.18 206.45
  Q 146.50 198.27 154.02 190.27
  Q 156.36 187.77 160.69 186.19
  Q 175.15 180.88 187.50 178.96
  L 202.25 178.71
  Q 214.19 178.65 225.65 181.94
  Q 231.69 183.67 237.74 185.38
  Q 243.64 187.05 247.78 191.08
  Q 248.23 191.52 254.74 199.91
  Q 260.84 207.76 267.47 215.67
  A 1.27 1.27 -35.2 0 0 269.09 215.95
  Q 280.13 209.43 285.10 197.04
  Q 295.47 171.17 293.89 143.24
  Q 292.48 118.26 285.37 94.29
  Q 284.06 89.86 281.72 86.48
  Q 280.43 84.60 280.71 82.35
  Q 281.70 74.33 282.13 66.53
  Q 282.29 63.80 281.98 61.98
  Q 281.57 59.60 280.69 57.56
  Q 274.01 42.13 262.44 29.36
  Q 262.39 29.30 261.75 28.46
  Q 260.74 27.13 259.71 28.75
  Q 243.70 40.62 222.56 45.31
  Q 202.86 49.68 184.00 47.50
  Q 158.98 44.60 139.54 27.75
  Q 133.76 20.50 128.03 13.22
  Q 127.86 13.01 127.87 12.82
  Q 127.87 12.35 128.24 12.78
  Q 130.87 15.91 133.42 19.11
  Q 147.32 36.61 168.75 43.25
  Q 187.71 49.13 208.15 46.66
  Q 218.63 45.39 227.77 42.88
  Q 238.83 39.85 250.56 33.81
  Q 255.67 31.18 259.01 27.91
  Q 261.75 25.23 263.59 20.20
  Q 265.83 14.09 267.31 7.74
  Q 267.34 7.63 267.39 6.62
  Q 267.42 5.99 267.95 5.85
  A 0.37 0.32 -89.5 0 1 268.33 6.30
  Q 266.05 16.79 262.00 26.73
  A 0.78 0.77 -55.3 0 0 262.14 27.55
  Q 275.42 42.34 282.44 59.06
  Q 283.57 61.77 283.35 66.01
  Q 282.92 74.16 281.68 82.77
  A 3.10 3.06 34.3 0 0 282.07 84.78
  Q 286.56 92.34 288.49 99.69
  Q 296.06 128.44 295.00 156.75
  Q 294.29 175.61 287.31 193.77
  Q 284.16 201.98 280.71 206.73
  Q 276.25 212.86 270.01 216.87
  A 1.11 1.10 47.6 0 0 269.94 218.68
  L 287.04 232.00
  Q 287.65 232.47 286.97 232.47
  Q 286.66 232.47 286.30 232.21
  Q 279.41 227.23 272.81 221.88
  Q 268.26 218.19 264.33 213.46
  Q 255.88 203.26 249.56 194.69
  Q 245.86 189.66 240.37 187.75
  Q 231.99 184.83 223.50 182.25
  Q 214.89 179.63 204.73 179.97
  Q 199.64 180.14 194.65 179.98
  Q 188.35 179.78 183.25 180.75
  Q 172.26 182.85 160.75 187.25
  Q 158.05 188.28 156.43 189.70
  Q 150.56 194.83 145.49 200.75
  Q 135.73 212.14 129.19 217.69
  Q 125.05 221.19 113.64 229.19
  Q 110.66 231.27 109.22 232.73
  Q 107.21 234.74 105.60 237.13
  Q 105.18 237.75 105.09 237.34
  A 0.69 0.50 -40.6 0 1 105.21 236.84
  Q 108.82 231.41 114.26 227.77
  Q 120.83 223.37 127.43 218.51
  Q 128.55 217.69 127.19 217.41
  Q 123.88 216.74 120.44 214.50
  Q 112.94 209.62 108.86 201.67
  Q 104.53 193.25 102.39 184.03
  Q 100.23 174.72 98.90 165.26
  Q 96.94 151.39 98.60 137.48
  Q 101.54 112.77 111.61 90.05
  Q 112.63 87.75 116.00 83.00
  Q 117.57 80.79 117.29 77.89
  Q 116.98 74.64 116.98 74.59
  Q 116.90 67.02 117.26 59.27
  Q 117.31 58.14 117.86 57.15
  Q 124.16 45.79 131.31 36.56
  Q 135.57 31.06 139.04 28.00
  Z"
/>
<path fill="#030204" d="
  M 78.96 74.75
  Q 78.73 72.63 78.27 70.55
  Q 77.75 68.23 77.86 66.38
  Q 78.62 53.62 81.82 40.97
  A 1.16 1.16 -88.0 0 0 80.49 39.54
  Q 77.12 40.15 78.29 37.52
  Q 82.28 28.49 89.44 20.94
  Q 90.10 20.23 89.25 19.54
  Q 91.36 19.10 95.75 19.50
  Q 97.96 19.70 95.99 20.19
  Q 95.77 20.25 95.51 20.22
  Q 92.51 19.96 90.06 22.31
  Q 82.87 29.21 79.44 37.53
  A 1.22 0.89 -53.1 0 0 79.43 38.46
  Q 80.02 39.63 81.62 39.04
  Q 83.30 38.42 82.90 40.10
  L 80.00 52.25
  Q 79.27 55.31 79.25 56.50
  L 78.96 74.75
  Z"
/>
<path fill="#d89382" d="
  M 139.54 27.75
  Q 158.98 44.60 184.00 47.50
  Q 202.86 49.68 222.56 45.31
  Q 243.70 40.62 259.71 28.75
  Q 259.65 29.59 260.13 30.16
  A 0.59 0.51 46.2 0 1 260.17 30.88
  Q 253.07 39.04 245.93 47.18
  Q 243.30 50.19 240.69 51.44
  Q 231.73 55.72 220.51 57.09
  Q 196.89 59.99 174.41 53.58
  Q 164.64 50.79 157.56 47.80
  Q 149.32 44.32 141.94 39.06
  Q 140.07 37.73 134.25 33.96
  L 139.04 28.00
  Q 139.39 28.10 139.54 27.75
  Z"
/>
<path fill="#efc19b" d="
  M 202.25 178.71
  Q 202.67 177.28 204.25 177.25
  Q 206.44 177.21 205.94 174.31
  Q 205.62 172.47 206.25 170.71
  Q 213.05 170.62 217.50 170.25
  Q 221.73 169.90 223.01 166.69
  Q 223.14 166.37 224.10 160.91
  Q 225.21 154.55 225.00 152.25
  Q 224.86 150.76 224.15 151.64
  Q 223.94 151.90 223.89 152.31
  Q 223.21 157.40 222.71 162.51
  Q 222.40 165.69 221.72 166.84
  Q 220.42 169.04 217.50 169.25
  Q 216.42 169.33 211.50 169.21
  Q 214.77 164.19 212.51 159.83
  Q 211.06 157.04 207.05 154.63
  Q 203.75 152.65 199.98 151.57
  Q 195.13 150.18 191.81 146.44
  Q 188.81 143.05 190.06 139.81
  Q 192.27 134.11 194.00 128.25
  Q 194.77 125.64 192.71 125.00
  Q 193.87 124.19 193.54 123.25
  A 0.37 0.33 -33.5 0 0 192.95 123.17
  Q 186.98 129.02 183.71 136.75
  Q 178.42 148.00 180.44 159.81
  Q 181.22 164.40 184.99 167.77
  A 0.78 0.77 -69.5 0 1 185.25 168.35
  L 185.25 168.71
  Q 181.35 167.98 177.43 167.39
  Q 176.89 167.30 176.44 167.31
  Q 173.73 167.35 176.06 168.54
  Q 176.47 168.74 177.00 168.83
  Q 181.51 169.53 186.00 170.29
  L 187.50 178.96
  Q 175.15 180.88 160.69 186.19
  Q 156.36 187.77 154.02 190.27
  Q 146.50 198.27 139.18 206.45
  Q 134.82 211.34 129.51 215.82
  A 2.33 2.32 28.6 0 1 127.69 216.35
  Q 123.18 215.72 120.13 213.35
  Q 112.66 207.51 108.68 199.37
  Q 106.20 194.27 103.39 182.51
  Q 98.58 162.30 99.75 143.00
  Q 101.20 119.24 109.25 96.87
  Q 112.16 88.77 117.20 82.77
  Q 118.31 81.44 118.28 79.72
  Q 118.07 67.99 118.50 58.00
  Q 118.56 56.61 120.07 54.22
  Q 121.68 51.69 121.72 51.61
  Q 127.30 42.30 134.25 33.96
  Q 140.07 37.73 141.94 39.06
  Q 149.32 44.32 157.56 47.80
  Q 164.64 50.79 174.41 53.58
  Q 196.89 59.99 220.51 57.09
  Q 231.73 55.72 240.69 51.44
  Q 243.30 50.19 245.93 47.18
  Q 253.07 39.04 260.17 30.88
  A 0.59 0.51 46.2 0 0 260.13 30.16
  Q 259.65 29.59 259.71 28.75
  Q 260.74 27.13 261.75 28.46
  Q 262.39 29.30 262.44 29.36
  Q 274.01 42.13 280.69 57.56
  Q 281.57 59.60 281.98 61.98
  Q 282.29 63.80 282.13 66.53
  Q 281.70 74.33 280.71 82.35
  Q 280.43 84.60 281.72 86.48
  Q 284.06 89.86 285.37 94.29
  Q 292.48 118.26 293.89 143.24
  Q 295.47 171.17 285.10 197.04
  Q 280.13 209.43 269.09 215.95
  A 1.27 1.27 -35.2 0 1 267.47 215.67
  Q 260.84 207.76 254.74 199.91
  Q 248.23 191.52 247.78 191.08
  Q 243.64 187.05 237.74 185.38
  Q 231.69 183.67 225.65 181.94
  Q 214.19 178.65 202.25 178.71
  Z
  M 179.35 80.13
  Q 177.18 80.05 175.64 78.52
  Q 172.72 75.64 169.52 71.73
  Q 169.24 71.39 168.99 71.36
  Q 168.43 71.31 168.78 72.00
  Q 170.76 75.92 173.98 78.79
  Q 175.96 80.55 178.67 80.98
  Q 181.31 81.40 184.00 81.33
  Q 185.01 81.30 184.73 80.72
  A 1.02 0.73 -7.3 0 0 183.93 80.29
  L 179.35 80.13
  Z
  M 210.38 81.88
  Q 211.58 82.04 212.79 82.04
  Q 213.57 82.04 215.20 82.13
  Q 218.62 82.30 221.00 80.25
  Q 224.24 77.46 227.94 72.19
  Q 228.23 71.77 227.98 71.53
  A 0.58 0.44 -47.9 0 0 227.25 71.67
  Q 224.19 75.15 221.02 78.52
  Q 219.19 80.47 216.66 80.58
  Q 214.00 80.69 213.85 80.71
  Q 212.31 80.87 210.75 80.76
  Q 208.45 80.60 209.58 81.54
  Q 209.90 81.81 210.38 81.88
  Z
  M 144.50 94.96
  Q 144.89 95.61 145.50 96.04
  Q 153.38 100.34 161.44 104.31
  Q 162.85 105.01 163.79 104.50
  Q 166.85 103.26 165.90 106.51
  A 1.19 1.19 37.5 0 0 166.02 107.42
  Q 167.09 109.30 166.25 111.29
  Q 157.87 107.90 148.80 108.06
  Q 147.95 108.08 148.55 108.67
  Q 150.37 110.46 148.06 110.46
  A 1.13 0.89 -14.3 0 1 147.21 110.08
  Q 146.92 109.70 146.84 109.19
  A 0.57 0.50 83.8 0 0 146.31 108.71
  Q 138.42 109.18 132.88 114.46
  Q 131.19 116.06 131.23 117.65
  Q 131.29 119.82 133.78 121.01
  Q 138.46 123.24 143.58 123.66
  Q 147.80 124.00 148.91 124.02
  Q 151.62 124.07 154.25 123.21
  Q 154.76 123.52 155.81 123.31
  Q 164.49 121.57 168.94 120.19
  Q 170.27 119.77 170.75 118.04
  Q 171.28 117.80 171.29 117.25
  Q 176.08 115.89 182.56 113.31
  Q 187.00 111.55 188.75 107.46
  Q 190.62 108.39 192.68 108.44
  A 0.46 0.37 -7.5 0 0 193.16 107.94
  Q 193.01 107.54 192.44 107.31
  Q 187.76 105.46 185.00 104.71
  Q 185.23 103.28 185.80 101.96
  Q 186.51 100.31 186.68 99.29
  Q 187.88 92.19 188.46 84.99
  Q 188.48 84.74 188.81 84.10
  L 189.75 82.29
  L 199.00 82.54
  L 198.96 83.50
  Q 198.36 83.88 198.31 84.31
  Q 198.01 87.23 198.00 93.00
  Q 198.00 94.40 198.75 94.46
  Q 200.09 94.92 200.92 96.07
  Q 205.35 102.24 211.04 107.25
  Q 209.45 108.92 207.82 110.55
  Q 207.52 110.86 207.47 111.18
  Q 207.37 111.91 208.21 111.75
  Q 213.55 116.89 220.94 117.41
  A 1.05 0.91 -65.1 0 0 221.74 117.05
  Q 222.84 115.78 223.46 117.50
  Q 223.41 119.22 224.79 120.22
  Q 228.21 122.72 232.25 123.32
  Q 234.52 123.65 238.22 123.91
  Q 240.92 124.10 244.25 123.75
  Q 253.87 122.74 259.44 121.44
  Q 263.19 120.56 264.34 117.48
  A 1.27 1.24 44.4 0 0 264.32 116.54
  Q 262.84 113.04 258.94 111.81
  Q 249.32 108.78 240.06 108.06
  Q 237.24 107.85 231.79 109.75
  L 231.20 109.47
  A 0.97 0.97 -82.9 0 1 230.65 108.76
  Q 230.28 106.77 230.75 104.79
  L 236.25 102.71
  Q 238.09 103.40 239.50 102.58
  Q 241.63 101.34 241.73 101.30
  Q 246.63 99.44 250.91 96.38
  Q 251.20 96.18 251.33 95.88
  Q 251.46 95.57 251.54 95.25
  Q 252.92 95.22 254.31 96.44
  Q 255.19 97.20 259.17 99.59
  Q 261.95 101.26 264.13 99.90
  Q 265.76 98.88 267.15 96.88
  Q 268.46 95.00 268.24 92.55
  A 1.47 1.27 23.6 0 0 267.84 91.71
  Q 262.36 86.18 255.94 81.78
  Q 254.13 80.53 252.38 80.79
  Q 250.12 81.13 247.19 82.44
  Q 241.52 84.95 223.04 91.86
  Q 219.05 93.36 216.06 91.19
  Q 214.54 90.08 209.25 85.21
  Q 206.51 84.92 206.21 82.25
  Q 207.16 80.60 205.25 80.70
  Q 196.63 81.14 188.00 80.77
  A 0.75 0.45 3.2 0 0 187.24 81.17
  Q 187.21 81.45 187.54 81.75
  Q 187.58 83.96 185.50 84.29
  Q 184.78 84.48 184.32 85.07
  Q 181.75 88.42 178.24 90.52
  Q 174.90 92.50 171.93 92.13
  Q 168.63 91.72 165.69 89.06
  Q 161.80 85.55 153.44 80.04
  Q 150.80 78.30 150.40 78.18
  Q 148.63 77.66 146.56 79.06
  Q 139.31 83.99 132.47 89.48
  Q 129.90 91.55 131.25 95.00
  Q 132.24 97.53 134.19 98.47
  Q 135.82 99.25 138.25 98.28
  Q 141.54 96.97 144.50 94.96
  Z
  M 239.57 132.02
  Q 235.33 131.27 231.15 130.23
  Q 229.39 129.79 230.07 130.66
  Q 230.27 130.92 230.64 131.08
  Q 245.08 137.12 259.15 130.33
  Q 259.46 130.18 259.65 129.94
  Q 260.60 128.79 258.78 129.47
  Q 253.55 131.43 248.09 132.24
  Q 244.13 132.82 239.57 132.02
  Z
  M 148.06 132.69
  Q 142.62 131.97 135.23 129.82
  Q 134.81 129.69 134.77 129.92
  A 0.48 0.29 21.0 0 0 135.07 130.31
  Q 150.40 137.70 166.06 130.06
  Q 166.52 129.84 166.26 129.63
  A 0.71 0.48 -26.5 0 0 165.73 129.56
  Q 161.20 130.63 156.72 131.88
  Q 152.00 133.21 148.06 132.69
  Z"
/>
<path fill="#030204" d="
  M 304.50 35.46
  Q 304.01 35.46 303.76 35.74
  A 1.00 0.59 59.0 0 0 303.77 36.65
  Q 307.50 44.81 309.25 52.75
  Q 309.58 54.24 308.77 55.59
  Q 308.49 56.06 308.45 56.50
  L 307.21 70.50
  Q 306.50 62.56 307.25 59.25
  Q 307.89 56.40 307.72 54.23
  Q 307.66 53.51 306.54 49.41
  Q 304.45 41.70 303.44 39.56
  Q 302.44 37.46 302.42 35.81
  A 1.88 1.51 -67.2 0 0 302.16 34.90
  Q 301.46 33.81 301.02 32.76
  Q 300.37 31.21 301.55 32.43
  L 304.50 35.46
  Z"
/>
<path fill="#030204" d="
  M 179.35 80.13
  L 183.93 80.29
  A 1.02 0.73 -7.3 0 1 184.73 80.72
  Q 185.01 81.30 184.00 81.33
  Q 181.31 81.40 178.67 80.98
  Q 175.96 80.55 173.98 78.79
  Q 170.76 75.92 168.78 72.00
  Q 168.43 71.31 168.99 71.36
  Q 169.24 71.39 169.52 71.73
  Q 172.72 75.64 175.64 78.52
  Q 177.18 80.05 179.35 80.13
  Z"
/>
<path fill="#121115" d="
  M 209.58 81.54
  Q 208.45 80.60 210.75 80.76
  Q 212.31 80.87 213.85 80.71
  Q 214.00 80.69 216.66 80.58
  Q 219.19 80.47 221.02 78.52
  Q 224.19 75.15 227.25 71.67
  A 0.58 0.44 -47.9 0 1 227.98 71.53
  Q 228.23 71.77 227.94 72.19
  Q 224.24 77.46 221.00 80.25
  Q 218.62 82.30 215.20 82.13
  Q 213.57 82.04 212.79 82.04
  Q 211.58 82.04 210.38 81.88
  Q 209.90 81.81 209.58 81.54
  Z"
/>
<path fill="#121115" d="
  M 185.50 84.29
  Q 185.83 84.63 185.56 85.31
  Q 182.05 94.38 175.32 100.33
  Q 173.27 102.14 171.77 102.62
  Q 169.48 103.36 167.31 102.19
  Q 158.70 97.55 149.83 92.81
  A 1.78 1.58 42.0 0 0 148.19 92.80
  L 144.50 94.96
  Q 141.54 96.97 138.25 98.28
  Q 135.82 99.25 134.19 98.47
  Q 132.24 97.53 131.25 95.00
  Q 129.90 91.55 132.47 89.48
  Q 139.31 83.99 146.56 79.06
  Q 148.63 77.66 150.40 78.18
  Q 150.80 78.30 153.44 80.04
  Q 161.80 85.55 165.69 89.06
  Q 168.63 91.72 171.93 92.13
  Q 174.90 92.50 178.24 90.52
  Q 181.75 88.42 184.32 85.07
  Q 184.78 84.48 185.50 84.29
  Z
  M 157.19 83.94
  Q 153.90 81.32 150.17 79.30
  A 1.82 1.80 41.8 0 0 148.28 79.40
  Q 141.71 83.92 135.19 88.86
  Q 132.71 90.73 132.13 91.93
  Q 130.98 94.31 133.24 96.76
  Q 135.68 99.41 138.57 97.33
  Q 142.99 94.17 148.00 91.26
  A 2.01 2.01 51.2 0 1 150.39 91.52
  Q 152.67 93.61 155.44 94.81
  Q 160.62 97.07 165.43 100.07
  Q 167.32 101.26 169.43 101.49
  Q 171.36 101.71 173.26 100.39
  Q 177.93 97.16 180.67 91.85
  A 0.24 0.24 -76.3 0 0 180.46 91.50
  Q 178.90 91.50 177.52 92.23
  Q 173.48 94.34 169.31 92.69
  Q 167.97 92.16 162.59 88.24
  Q 162.56 88.22 157.19 83.94
  Z"
/>
<path fill="#2c2b3d" d="
  M 162.59 88.24
  Q 167.97 92.16 169.31 92.69
  Q 173.48 94.34 177.52 92.23
  Q 178.90 91.50 180.46 91.50
  A 0.24 0.24 -76.3 0 1 180.67 91.85
  Q 177.93 97.16 173.26 100.39
  Q 171.36 101.71 169.43 101.49
  Q 167.32 101.26 165.43 100.07
  Q 160.62 97.07 155.44 94.81
  Q 152.67 93.61 150.39 91.52
  A 2.01 2.01 51.2 0 0 148.00 91.26
  Q 142.99 94.17 138.57 97.33
  Q 135.68 99.41 133.24 96.76
  Q 130.98 94.31 132.13 91.93
  Q 132.71 90.73 135.19 88.86
  Q 141.71 83.92 148.28 79.40
  A 1.82 1.80 41.8 0 1 150.17 79.30
  Q 153.90 81.32 157.19 83.94
  Q 162.56 88.22 162.59 88.24
  Z"
/>
<path fill="#121115" d="
  M 251.54 95.25
  Q 249.16 94.93 246.91 95.88
  Q 242.38 97.79 237.75 99.46
  Q 231.04 102.37 223.75 103.03
  Q 216.34 103.70 212.88 97.34
  Q 210.14 92.31 208.68 86.77
  Q 208.39 85.66 209.25 85.21
  Q 214.54 90.08 216.06 91.19
  Q 219.05 93.36 223.04 91.86
  Q 241.52 84.95 247.19 82.44
  Q 250.12 81.13 252.38 80.79
  Q 254.13 80.53 255.94 81.78
  Q 262.36 86.18 267.84 91.71
  A 1.47 1.27 23.6 0 1 268.24 92.55
  Q 268.46 95.00 267.15 96.88
  Q 265.76 98.88 264.13 99.90
  Q 261.95 101.26 259.17 99.59
  Q 255.19 97.20 254.31 96.44
  Q 252.92 95.22 251.54 95.25
  Z
  M 215.25 92.71
  L 211.14 88.38
  A 0.28 0.22 48.3 0 0 210.82 88.32
  L 210.66 88.44
  A 0.61 0.32 61.1 0 0 210.67 89.06
  L 212.54 93.00
  Q 214.67 102.01 223.09 101.45
  Q 227.08 101.19 227.30 101.18
  Q 230.81 101.05 233.31 100.06
  Q 239.13 97.76 244.90 95.34
  Q 247.61 94.20 250.47 94.13
  Q 252.57 94.09 254.67 95.48
  Q 256.59 96.75 258.42 98.13
  Q 261.36 100.36 264.44 97.94
  Q 269.43 93.99 264.48 90.04
  Q 261.06 87.32 257.56 84.69
  Q 255.67 83.26 253.94 82.56
  Q 252.28 81.89 250.09 82.67
  Q 237.21 87.21 224.69 92.70
  Q 221.87 93.93 218.81 93.94
  A 1.63 1.19 55.5 0 1 217.92 93.63
  Q 216.73 92.78 215.25 92.71
  Z"
/>
<path fill="#121115" d="
  M 206.21 82.25
  Q 202.58 81.68 199.00 82.54
  L 189.75 82.29
  L 187.54 81.75
  Q 187.21 81.45 187.24 81.17
  A 0.75 0.45 3.2 0 1 188.00 80.77
  Q 196.63 81.14 205.25 80.70
  Q 207.16 80.60 206.21 82.25
  Z"
/>
<path fill="#d6977c" d="
  M 187.54 81.75
  L 189.75 82.29
  L 188.81 84.10
  Q 188.48 84.74 188.46 84.99
  Q 187.88 92.19 186.68 99.29
  Q 186.51 100.31 185.80 101.96
  Q 185.23 103.28 185.00 104.71
  Q 183.58 104.95 184.95 105.53
  Q 186.92 106.37 188.75 107.46
  Q 187.00 111.55 182.56 113.31
  Q 176.08 115.89 171.29 117.25
  Q 169.81 113.43 166.25 111.29
  Q 167.09 109.30 166.02 107.42
  A 1.19 1.19 37.5 0 1 165.90 106.51
  Q 166.85 103.26 163.79 104.50
  Q 163.67 103.83 162.81 103.44
  Q 158.90 101.68 146.75 95.75
  Q 146.20 95.48 145.50 96.04
  Q 144.89 95.61 144.50 94.96
  L 148.19 92.80
  A 1.78 1.58 42.0 0 1 149.83 92.81
  Q 158.70 97.55 167.31 102.19
  Q 169.48 103.36 171.77 102.62
  Q 173.27 102.14 175.32 100.33
  Q 182.05 94.38 185.56 85.31
  Q 185.83 84.63 185.50 84.29
  Q 187.58 83.96 187.54 81.75
  Z"
/>
<path fill="#d6977c" d="
  M 206.21 82.25
  Q 206.51 84.92 209.25 85.21
  Q 208.39 85.66 208.68 86.77
  Q 210.14 92.31 212.88 97.34
  Q 216.34 103.70 223.75 103.03
  Q 231.04 102.37 237.75 99.46
  Q 238.29 100.83 236.75 101.21
  Q 233.54 102.38 230.60 104.13
  Q 230.00 104.49 230.75 104.79
  Q 230.28 106.77 230.65 108.76
  A 0.97 0.97 -82.9 0 0 231.20 109.47
  L 231.79 109.75
  Q 227.15 111.67 224.07 115.57
  Q 223.40 116.41 223.46 117.50
  Q 222.84 115.78 221.74 117.05
  A 1.05 0.91 -65.1 0 1 220.94 117.41
  Q 213.55 116.89 208.21 111.75
  L 211.93 108.39
  A 1.60 1.10 -24.7 0 0 212.42 107.57
  Q 212.70 105.99 211.04 107.25
  Q 205.35 102.24 200.92 96.07
  Q 200.09 94.92 198.75 94.46
  Q 199.63 92.11 199.75 87.00
  Q 199.81 84.44 198.96 83.50
  L 199.00 82.54
  Q 202.58 81.68 206.21 82.25
  Z"
/>
<path fill="#2c2b3d" d="
  M 212.54 93.00
  L 215.25 92.71
  Q 216.73 92.78 217.92 93.63
  A 1.63 1.19 55.5 0 0 218.81 93.94
  Q 221.87 93.93 224.69 92.70
  Q 237.21 87.21 250.09 82.67
  Q 252.28 81.89 253.94 82.56
  Q 255.67 83.26 257.56 84.69
  Q 261.06 87.32 264.48 90.04
  Q 269.43 93.99 264.44 97.94
  Q 261.36 100.36 258.42 98.13
  Q 256.59 96.75 254.67 95.48
  Q 252.57 94.09 250.47 94.13
  Q 247.61 94.20 244.90 95.34
  Q 239.13 97.76 233.31 100.06
  Q 230.81 101.05 227.30 101.18
  Q 227.08 101.19 223.09 101.45
  Q 214.67 102.01 212.54 93.00
  Z"
/>
<path fill="#414052" d="
  M 198.96 83.50
  Q 199.81 84.44 199.75 87.00
  Q 199.63 92.11 198.75 94.46
  Q 198.00 94.40 198.00 93.00
  Q 198.01 87.23 198.31 84.31
  Q 198.36 83.88 198.96 83.50
  Z"
/>
<path fill="#121115" d="
  M 80.04 84.50
  L 81.37 87.48
  A 0.70 0.69 -14.4 0 0 82.06 87.88
  Q 84.80 87.67 86.94 90.06
  Q 93.61 97.52 96.32 100.71
  Q 97.68 102.32 97.73 103.80
  Q 97.78 105.08 97.30 106.31
  Q 96.51 108.32 96.49 108.39
  Q 92.34 122.42 90.94 132.44
  Q 89.84 140.29 88.44 159.94
  Q 88.21 163.17 85.60 168.58
  Q 81.62 176.82 77.94 185.19
  Q 76.54 188.36 75.94 190.99
  Q 74.72 196.29 74.51 196.88
  Q 71.88 204.11 68.04 210.80
  Q 65.63 215.03 64.52 219.76
  Q 63.67 223.42 65.25 226.25
  Q 66.23 228.00 66.21 229.25
  Q 63.42 226.66 63.25 223.50
  Q 62.92 217.27 66.55 211.10
  Q 71.10 203.36 74.12 194.91
  Q 75.01 192.43 73.54 190.25
  Q 74.71 190.45 75.25 189.25
  Q 80.59 177.31 85.83 165.32
  Q 86.90 162.88 86.99 160.25
  A 1.22 0.98 -71.4 0 0 86.67 159.38
  L 80.76 153.90
  A 0.63 0.60 -59.5 0 0 79.77 154.18
  Q 77.86 159.52 77.10 165.26
  Q 75.98 173.73 74.78 182.18
  Q 74.76 182.29 74.79 185.19
  Q 74.81 186.83 73.75 188.21
  Q 73.82 171.55 77.25 158.00
  Q 78.15 154.45 77.75 151.43
  Q 77.60 150.27 75.58 145.38
  Q 73.19 139.60 72.83 133.25
  Q 72.44 126.55 72.25 110.50
  Q 72.19 105.03 72.72 101.50
  Q 73.90 93.69 79.65 88.40
  Q 81.41 86.79 80.04 84.50
  Z
  M 74.04 119.50
  Q 73.46 129.51 75.40 139.32
  Q 77.64 150.68 86.84 157.45
  Q 87.24 157.74 87.28 157.25
  L 88.81 138.48
  A 1.19 1.16 -74.7 0 0 88.18 137.34
  Q 86.82 136.66 85.73 135.41
  Q 84.38 133.86 83.83 133.01
  Q 82.27 130.62 83.75 127.50
  Q 85.38 124.06 87.96 122.07
  A 0.41 0.34 -29.8 0 1 88.56 122.17
  Q 88.66 122.44 88.44 122.69
  Q 86.65 124.70 85.53 126.74
  Q 84.16 129.23 84.68 131.47
  Q 85.34 134.36 88.24 135.95
  A 0.42 0.41 23.1 0 0 88.84 135.71
  Q 93.99 119.27 85.32 104.45
  Q 83.84 101.91 81.93 104.15
  Q 78.37 108.34 77.67 113.49
  Q 77.33 116.01 75.75 117.96
  Q 75.86 116.77 76.16 115.63
  Q 76.49 114.33 76.61 113.32
  Q 77.38 106.85 81.06 103.06
  Q 83.79 100.26 85.94 103.31
  Q 89.48 108.34 90.69 114.96
  Q 91.11 117.26 91.79 119.50
  Q 92.28 124.07 92.46 119.50
  Q 92.45 117.61 93.05 115.81
  Q 95.02 109.85 96.51 103.70
  A 1.11 1.10 -56.6 0 0 96.33 102.79
  Q 92.60 97.79 89.00 93.25
  Q 86.12 89.62 84.50 89.25
  Q 80.61 88.36 78.38 91.65
  Q 73.53 98.77 73.66 107.50
  Q 73.75 113.50 74.04 119.50
  Z"
/>
<path fill="#414052" d="
  M 215.25 92.71
  L 212.54 93.00
  L 210.67 89.06
  A 0.61 0.32 61.1 0 1 210.66 88.44
  L 210.82 88.32
  A 0.28 0.22 48.3 0 1 211.14 88.38
  L 215.25 92.71
  Z"
/>
<path fill="#e6b398" d="
  M 92.46 119.50
  L 91.79 119.50
  Q 91.11 117.26 90.69 114.96
  Q 89.48 108.34 85.94 103.31
  Q 83.79 100.26 81.06 103.06
  Q 77.38 106.85 76.61 113.32
  Q 76.49 114.33 76.16 115.63
  Q 75.86 116.77 75.75 117.96
  Q 75.53 119.64 74.04 119.50
  Q 73.75 113.50 73.66 107.50
  Q 73.53 98.77 78.38 91.65
  Q 80.61 88.36 84.50 89.25
  Q 86.12 89.62 89.00 93.25
  Q 92.60 97.79 96.33 102.79
  A 1.11 1.10 -56.6 0 1 96.51 103.70
  Q 95.02 109.85 93.05 115.81
  Q 92.45 117.61 92.46 119.50
  Z"
/>
<path fill="#121115" d="
  M 305.29 89.75
  Q 305.83 90.14 306.40 89.99
  Q 307.21 89.78 307.26 89.78
  Q 311.39 89.52 313.19 92.81
  Q 318.22 102.05 316.25 113.25
  Q 315.83 115.63 314.82 125.73
  Q 314.81 125.81 314.40 132.28
  Q 313.66 143.89 307.39 153.31
  A 2.16 2.14 53.7 0 0 307.12 155.10
  Q 312.72 174.11 318.50 190.50
  Q 319.23 192.58 316.79 192.00
  Q 317.14 190.77 316.81 190.19
  Q 314.44 185.96 312.84 181.41
  Q 310.61 175.10 309.48 172.43
  Q 307.37 167.48 305.67 162.39
  Q 304.74 159.58 304.57 156.46
  Q 304.40 153.44 304.29 150.41
  Q 304.20 147.68 303.30 143.31
  Q 302.77 140.74 302.59 138.12
  Q 302.37 134.84 301.98 132.93
  Q 300.80 127.04 299.59 121.15
  Q 299.59 121.12 298.66 115.29
  Q 298.05 111.45 296.57 107.84
  Q 295.61 105.50 295.93 104.01
  Q 296.22 102.64 296.99 101.43
  Q 297.98 99.84 298.34 99.05
  Q 300.35 94.62 303.99 91.35
  Q 304.07 91.27 304.70 90.90
  Q 305.29 90.56 305.29 89.75
  Z
  M 300.50 117.54
  L 301.29 121.75
  Q 304.01 136.29 305.59 151.88
  Q 305.73 153.30 306.48 152.09
  Q 309.79 146.76 311.54 141.16
  Q 312.61 137.74 312.73 132.08
  Q 312.95 120.79 314.50 114.00
  Q 316.50 105.21 313.51 96.79
  Q 312.22 93.18 310.44 91.81
  Q 307.63 89.66 304.62 92.38
  Q 300.26 96.32 297.48 103.01
  Q 296.76 104.73 297.39 106.89
  L 300.50 117.54
  Z"
/>
<path fill="#e7ba9c" d="
  M 301.29 121.75
  Q 301.88 122.00 302.50 121.96
  Q 303.09 121.96 303.68 121.87
  Q 304.27 121.77 304.83 121.83
  Q 309.13 122.28 311.09 118.51
  A 1.70 0.80 71.4 0 0 311.20 117.57
  L 311.04 116.25
  Q 311.35 116.06 311.54 115.74
  Q 311.69 115.49 311.67 115.08
  Q 311.26 108.33 308.14 102.22
  A 0.80 0.80 -36.1 0 0 306.86 102.02
  Q 300.97 107.96 301.00 116.75
  Q 301.00 117.56 300.50 117.54
  L 297.39 106.89
  Q 296.76 104.73 297.48 103.01
  Q 300.26 96.32 304.62 92.38
  Q 307.63 89.66 310.44 91.81
  Q 312.22 93.18 313.51 96.79
  Q 316.50 105.21 314.50 114.00
  Q 312.95 120.79 312.73 132.08
  Q 312.61 137.74 311.54 141.16
  Q 309.79 146.76 306.48 152.09
  Q 305.73 153.30 305.59 151.88
  Q 304.01 136.29 301.29 121.75
  Z"
/>
<path fill="#a97770" d="
  M 251.54 95.25
  Q 251.46 95.57 251.33 95.88
  Q 251.20 96.18 250.91 96.38
  Q 246.63 99.44 241.73 101.30
  Q 241.63 101.34 239.50 102.58
  Q 238.09 103.40 236.25 102.71
  Q 237.92 102.20 236.75 101.21
  Q 238.29 100.83 237.75 99.46
  Q 242.38 97.79 246.91 95.88
  Q 249.16 94.93 251.54 95.25
  Z"
/>
<path fill="#121115" d="
  M 163.79 104.50
  Q 162.85 105.01 161.44 104.31
  Q 153.38 100.34 145.50 96.04
  Q 146.20 95.48 146.75 95.75
  Q 158.90 101.68 162.81 103.44
  Q 163.67 103.83 163.79 104.50
  Z"
/>
<path fill="#121115" d="
  M 236.75 101.21
  Q 237.92 102.20 236.25 102.71
  L 230.75 104.79
  Q 230.00 104.49 230.60 104.13
  Q 233.54 102.38 236.75 101.21
  Z"
/>
<path fill="#392524" d="
  M 311.04 116.25
  L 308.00 105.49
  Q 307.28 102.95 305.87 105.11
  Q 301.54 111.71 302.63 119.88
  Q 302.64 119.95 302.87 120.72
  Q 303.09 121.42 302.50 121.96
  Q 301.88 122.00 301.29 121.75
  L 300.50 117.54
  Q 301.00 117.56 301.00 116.75
  Q 300.97 107.96 306.86 102.02
  A 0.80 0.80 -36.1 0 1 308.14 102.22
  Q 311.26 108.33 311.67 115.08
  Q 311.69 115.49 311.54 115.74
  Q 311.35 116.06 311.04 116.25
  Z"
/>
<path fill="#da9887" d="
  M 74.04 119.50
  Q 75.53 119.64 75.75 117.96
  Q 77.33 116.01 77.67 113.49
  Q 78.37 108.34 81.93 104.15
  Q 83.84 101.91 85.32 104.45
  Q 93.99 119.27 88.84 135.71
  A 0.42 0.41 23.1 0 1 88.24 135.95
  Q 85.34 134.36 84.68 131.47
  Q 84.16 129.23 85.53 126.74
  Q 86.65 124.70 88.44 122.69
  Q 88.66 122.44 88.56 122.17
  A 0.41 0.34 -29.8 0 0 87.96 122.07
  Q 85.38 124.06 83.75 127.50
  Q 82.27 130.62 83.83 133.01
  Q 84.38 133.86 85.73 135.41
  Q 86.82 136.66 88.18 137.34
  A 1.19 1.16 -74.7 0 1 88.81 138.48
  L 87.28 157.25
  Q 87.24 157.74 86.84 157.45
  Q 77.64 150.68 75.40 139.32
  Q 73.46 129.51 74.04 119.50
  Z"
/>
<path fill="#e7a98d" d="
  M 311.04 116.25
  L 311.20 117.57
  A 1.70 0.80 71.4 0 1 311.09 118.51
  Q 309.13 122.28 304.83 121.83
  Q 304.27 121.77 303.68 121.87
  Q 303.09 121.96 302.50 121.96
  Q 303.09 121.42 302.87 120.72
  Q 302.64 119.95 302.63 119.88
  Q 301.54 111.71 305.87 105.11
  Q 307.28 102.95 308.00 105.49
  L 311.04 116.25
  Z"
/>
<path fill="#121115" d="
  M 185.00 104.71
  Q 187.76 105.46 192.44 107.31
  Q 193.01 107.54 193.16 107.94
  A 0.46 0.37 -7.5 0 1 192.68 108.44
  Q 190.62 108.39 188.75 107.46
  Q 186.92 106.37 184.95 105.53
  Q 183.58 104.95 185.00 104.71
  Z"
/>
<path fill="#121115" d="
  M 208.21 111.75
  Q 207.37 111.91 207.47 111.18
  Q 207.52 110.86 207.82 110.55
  Q 209.45 108.92 211.04 107.25
  Q 212.70 105.99 212.42 107.57
  A 1.60 1.10 -24.7 0 1 211.93 108.39
  L 208.21 111.75
  Z"
/>
<path fill="#121115" d="
  M 166.25 111.29
  Q 169.81 113.43 171.29 117.25
  Q 171.28 117.80 170.75 118.04
  L 170.54 118.00
  Q 168.58 113.23 163.52 111.93
  Q 160.20 111.08 156.81 110.52
  Q 156.37 110.45 155.92 110.13
  Q 154.64 109.25 155.00 111.00
  Q 156.08 116.21 154.29 122.50
  L 154.25 123.21
  Q 151.62 124.07 148.91 124.02
  Q 147.80 124.00 143.58 123.66
  Q 138.46 123.24 133.78 121.01
  Q 131.29 119.82 131.23 117.65
  Q 131.19 116.06 132.88 114.46
  Q 138.42 109.18 146.31 108.71
  A 0.57 0.50 83.8 0 1 146.84 109.19
  Q 146.92 109.70 147.21 110.08
  A 1.13 0.89 -14.3 0 0 148.06 110.46
  Q 150.37 110.46 148.55 108.67
  Q 147.95 108.08 148.80 108.06
  Q 157.87 107.90 166.25 111.29
  Z
  M 132.85 119.16
  Q 138.06 122.68 143.68 122.69
  A 0.37 0.37 81.5 0 0 144.04 122.21
  Q 142.46 116.72 144.28 110.57
  Q 144.49 109.86 143.81 110.14
  Q 140.84 111.33 137.95 112.35
  Q 133.88 113.79 132.35 117.51
  A 1.36 1.35 28.2 0 0 132.85 119.16
  Z"
/>
<path fill="#121115" d="
  M 223.46 117.50
  Q 223.40 116.41 224.07 115.57
  Q 227.15 111.67 231.79 109.75
  Q 237.24 107.85 240.06 108.06
  Q 249.32 108.78 258.94 111.81
  Q 262.84 113.04 264.32 116.54
  A 1.27 1.24 44.4 0 1 264.34 117.48
  Q 263.19 120.56 259.44 121.44
  Q 253.87 122.74 244.25 123.75
  Q 240.92 124.10 238.22 123.91
  Q 234.52 123.65 232.25 123.32
  Q 228.21 122.72 224.79 120.22
  Q 223.41 119.22 223.46 117.50
  Z
  M 240.8290 109.9900
  A 1.81 0.92 -1.9 0 0 238.9895 109.1305
  A 1.81 0.92 -1.9 0 0 237.2110 110.1100
  A 1.81 0.92 -1.9 0 0 239.0505 110.9695
  A 1.81 0.92 -1.9 0 0 240.8290 109.9900
  Z
  M 226.40 119.93
  Q 230.73 122.98 235.43 122.95
  A 0.36 0.36 80.7 0 0 235.77 122.47
  Q 233.83 116.98 235.44 110.82
  A 0.32 0.31 -88.8 0 0 235.07 110.43
  Q 228.82 111.78 225.75 115.97
  Q 224.05 118.28 226.40 119.93
  Z
  M 255.60 112.26
  Q 251.82 111.55 247.24 110.50
  A 0.55 0.55 0.7 0 0 246.58 111.14
  Q 247.65 116.13 246.31 122.41
  A 0.36 0.34 -88.6 0 0 246.70 122.84
  L 261.26 120.25
  Q 265.02 119.58 262.80 116.40
  Q 260.57 113.20 255.60 112.26
  Z"
/>
<ellipse fill="#ecdcbf" cx="0.00" cy="0.00" transform="translate(239.02,110.05) rotate(-1.9)" rx="1.81" ry="0.92"/>
<path fill="#ecdcbf" d="
  M 170.54 118.00
  Q 169.98 119.39 168.69 119.69
  Q 162.90 121.02 154.29 122.50
  Q 156.08 116.21 155.00 111.00
  Q 154.64 109.25 155.92 110.13
  Q 156.37 110.45 156.81 110.52
  Q 160.20 111.08 163.52 111.93
  Q 168.58 113.23 170.54 118.00
  Z"
/>
<path fill="#ecdcbf" d="
  M 132.85 119.16
  A 1.36 1.35 28.2 0 1 132.35 117.51
  Q 133.88 113.79 137.95 112.35
  Q 140.84 111.33 143.81 110.14
  Q 144.49 109.86 144.28 110.57
  Q 142.46 116.72 144.04 122.21
  A 0.37 0.37 81.8 0 1 143.68 122.69
  Q 138.06 122.68 132.85 119.16
  Z"
/>
<path fill="#ecdcbf" d="
  M 226.40 119.93
  Q 224.05 118.28 225.75 115.97
  Q 228.82 111.78 235.07 110.43
  A 0.32 0.31 -88.8 0 1 235.44 110.82
  Q 233.83 116.98 235.77 122.47
  A 0.36 0.36 80.7 0 1 235.43 122.95
  Q 230.73 122.98 226.40 119.93
  Z"
/>
<path fill="#ecdcbf" d="
  M 255.60 112.26
  Q 260.57 113.20 262.80 116.40
  Q 265.02 119.58 261.26 120.25
  L 246.70 122.84
  A 0.36 0.34 -88.6 0 1 246.31 122.41
  Q 247.65 116.13 246.58 111.14
  A 0.55 0.55 0.7 0 1 247.24 110.50
  Q 251.82 111.55 255.60 112.26
  Z"
/>
<path fill="#414052" d="
  M 170.54 118.00
  L 170.75 118.04
  Q 170.27 119.77 168.94 120.19
  Q 164.49 121.57 155.81 123.31
  Q 154.76 123.52 154.25 123.21
  L 154.29 122.50
  Q 162.90 121.02 168.69 119.69
  Q 169.98 119.39 170.54 118.00
  Z"
/>
<path fill="#414052" d="
  M 91.79 119.50
  L 92.46 119.50
  Q 92.28 124.07 91.79 119.50
  Z"
/>
<path fill="#121115" d="
  M 192.71 125.00
  L 183.71 136.75
  Q 186.98 129.02 192.95 123.17
  A 0.37 0.33 -33.5 0 1 193.54 123.25
  Q 193.87 124.19 192.71 125.00
  Z"
/>
<path fill="#d49278" d="
  M 192.71 125.00
  Q 194.77 125.64 194.00 128.25
  Q 192.27 134.11 190.06 139.81
  Q 188.81 143.05 191.81 146.44
  Q 195.13 150.18 199.98 151.57
  Q 203.75 152.65 207.05 154.63
  Q 211.06 157.04 212.51 159.83
  Q 214.77 164.19 211.50 169.21
  Q 208.04 169.17 206.44 169.69
  Q 205.52 169.98 206.25 170.71
  Q 205.62 172.47 205.94 174.31
  Q 206.44 177.21 204.25 177.25
  Q 202.67 177.28 202.25 178.71
  L 187.50 178.96
  L 186.00 170.29
  Q 187.99 169.31 185.25 168.71
  L 185.25 168.35
  A 0.78 0.77 -69.5 0 0 184.99 167.77
  Q 181.22 164.40 180.44 159.81
  Q 178.42 148.00 183.71 136.75
  L 192.71 125.00
  Z"
/>
<path fill="#2c2b3d" d="
  M 248.09 132.24
  Q 253.55 131.43 258.78 129.47
  Q 260.60 128.79 259.65 129.94
  Q 259.46 130.18 259.15 130.33
  Q 245.08 137.12 230.64 131.08
  Q 230.27 130.92 230.07 130.66
  Q 229.39 129.79 231.15 130.23
  Q 235.33 131.27 239.57 132.02
  Q 244.13 132.82 248.09 132.24
  Z"
/>
<path fill="#2c2b3d" d="
  M 148.06 132.69
  Q 152.00 133.21 156.72 131.88
  Q 161.20 130.63 165.73 129.56
  A 0.71 0.48 -26.5 0 1 166.26 129.63
  Q 166.52 129.84 166.06 130.06
  Q 150.40 137.70 135.07 130.31
  A 0.48 0.29 21.0 0 1 134.77 129.92
  Q 134.81 129.69 135.23 129.82
  Q 142.62 131.97 148.06 132.69
  Z"
/>
<path fill="#030204" d="
  M 206.25 170.71
  Q 205.52 169.98 206.44 169.69
  Q 208.04 169.17 211.50 169.21
  Q 216.42 169.33 217.50 169.25
  Q 220.42 169.04 221.72 166.84
  Q 222.40 165.69 222.71 162.51
  Q 223.21 157.40 223.89 152.31
  Q 223.94 151.90 224.15 151.64
  Q 224.86 150.76 225.00 152.25
  Q 225.21 154.55 224.10 160.91
  Q 223.14 166.37 223.01 166.69
  Q 221.73 169.90 217.50 170.25
  Q 213.05 170.62 206.25 170.71
  Z"
/>
<path fill="#39384d" d="
  M 73.54 190.25
  Q 73.28 189.18 73.75 188.21
  Q 74.81 186.83 74.79 185.19
  Q 74.76 182.29 74.78 182.18
  Q 75.98 173.73 77.10 165.26
  Q 77.86 159.52 79.77 154.18
  A 0.63 0.60 -59.5 0 1 80.76 153.90
  L 86.67 159.38
  A 1.22 0.98 -71.4 0 1 86.99 160.25
  Q 86.90 162.88 85.83 165.32
  Q 80.59 177.31 75.25 189.25
  Q 74.71 190.45 73.54 190.25
  Z"
/>
<path fill="#121115" d="
  M 185.25 168.71
  Q 187.99 169.31 186.00 170.29
  Q 181.51 169.53 177.00 168.83
  Q 176.47 168.74 176.06 168.54
  Q 173.73 167.35 176.44 167.31
  Q 176.89 167.30 177.43 167.39
  Q 181.35 167.98 185.25 168.71
  Z"
/>
<ellipse fill="#030204" cx="0.00" cy="0.00" transform="translate(199.46,181.64) rotate(-11.7)" rx="1.28" ry="0.66"/>
<path fill="#030204" d="
  M 173.29 200.75
  Q 190.71 194.19 209.01 196.52
  Q 214.82 197.26 217.62 197.85
  Q 221.90 198.74 225.92 200.59
  Q 226.99 201.08 226.68 200.21
  Q 226.59 199.96 226.34 199.72
  Q 217.08 190.62 205.00 189.50
  Q 187.78 187.90 174.00 199.29
  Q 173.41 198.94 173.99 198.48
  Q 180.74 193.09 188.70 190.33
  Q 197.01 187.44 205.05 188.38
  Q 216.89 189.78 225.50 198.32
  Q 231.54 204.32 231.71 204.48
  Q 236.58 209.07 240.63 214.42
  Q 242.72 217.19 245.50 222.27
  Q 248.87 228.44 250.31 230.19
  Q 254.34 235.06 257.07 240.75
  Q 257.42 241.48 257.01 241.42
  A 0.89 0.53 68.3 0 1 256.50 241.03
  L 245.70 224.64
  A 0.42 0.42 50.1 0 0 245.05 224.58
  Q 239.98 229.69 233.48 226.54
  Q 230.74 225.21 228.35 223.38
  Q 227.57 222.78 224.04 219.22
  Q 219.10 214.25 213.69 212.81
  Q 203.20 210.03 190.88 211.75
  Q 183.22 212.83 178.40 215.42
  Q 172.70 218.49 168.19 223.94
  Q 166.38 226.11 163.63 227.83
  Q 160.65 229.67 158.07 229.79
  Q 154.30 229.97 151.84 227.04
  Q 150.49 225.45 151.04 223.64
  Q 151.50 222.12 152.69 220.19
  Q 159.15 209.65 169.06 203.56
  Q 172.27 201.59 173.29 200.75
  Z
  M 231.34 205.42
  Q 229.32 203.43 226.74 202.28
  Q 219.80 199.18 212.25 198.21
  Q 197.56 196.33 183.00 199.00
  Q 167.95 201.76 157.53 214.54
  Q 154.94 217.72 152.61 221.10
  Q 149.75 225.24 153.75 227.50
  Q 157.45 229.59 161.69 227.69
  Q 165.68 225.89 170.01 220.77
  Q 174.35 215.62 180.26 213.19
  Q 184.84 211.32 192.37 210.35
  Q 204.03 208.86 215.43 212.71
  Q 221.38 214.72 225.58 219.42
  Q 229.54 223.86 234.90 226.19
  Q 237.11 227.15 238.86 226.93
  Q 240.99 226.67 242.76 225.28
  Q 245.59 223.08 243.31 219.94
  Q 236.42 210.42 231.34 205.42
  Z"
/>
<path fill="#da9887" d="
  M 173.29 200.75
  Q 173.37 199.90 174.00 199.29
  Q 187.78 187.90 205.00 189.50
  Q 217.08 190.62 226.34 199.72
  Q 226.59 199.96 226.68 200.21
  Q 226.99 201.08 225.92 200.59
  Q 221.90 198.74 217.62 197.85
  Q 214.82 197.26 209.01 196.52
  Q 190.71 194.19 173.29 200.75
  Z"
/>
<path fill="#030204" d="
  M 317.04 195.50
  Q 319.11 203.60 321.00 206.75
  Q 324.75 213.00 328.51 219.24
  Q 330.55 222.63 330.25 225.75
  Q 329.97 228.67 326.79 229.25
  Q 331.56 226.14 328.44 221.56
  Q 321.96 212.06 317.56 200.69
  Q 316.54 198.03 317.04 195.50
  Z"
/>
<path fill="#e4cbaa" d="
  M 231.34 205.42
  Q 236.42 210.42 243.31 219.94
  Q 245.59 223.08 242.76 225.28
  Q 240.99 226.67 238.86 226.93
  Q 237.11 227.15 234.90 226.19
  Q 229.54 223.86 225.58 219.42
  Q 221.38 214.72 215.43 212.71
  Q 204.03 208.86 192.37 210.35
  Q 184.84 211.32 180.26 213.19
  Q 174.35 215.62 170.01 220.77
  Q 165.68 225.89 161.69 227.69
  Q 157.45 229.59 153.75 227.50
  Q 149.75 225.24 152.61 221.10
  Q 154.94 217.72 157.53 214.54
  Q 167.95 201.76 183.00 199.00
  Q 197.56 196.33 212.25 198.21
  Q 219.80 199.18 226.74 202.28
  Q 229.32 203.43 231.34 205.42
  Z"
/>
<path fill="#030204" d="
  M 70.00 232.21
  Q 69.90 230.89 68.50 230.79
  Q 70.25 230.90 70.94 229.69
  Q 74.38 223.62 78.72 213.78
  A 0.43 0.22 -69.4 0 1 79.04 213.49
  Q 79.13 213.50 79.19 213.60
  A 0.37 0.24 -54.9 0 1 79.18 213.90
  Q 74.60 224.28 71.81 230.06
  Q 71.27 231.19 70.00 232.21
  Z"
/>
<path fill="#030204" d="
  M 322.00 229.21
  Q 318.27 228.35 319.56 231.19
  Q 333.20 261.13 332.00 296.00
  Q 331.67 305.57 330.54 310.50
  Q 330.17 308.45 330.40 306.42
  Q 330.83 302.59 330.83 302.53
  Q 331.61 282.59 330.44 273.56
  Q 328.01 254.85 321.44 238.81
  Q 319.93 235.14 319.01 232.68
  Q 317.77 229.35 316.18 226.76
  Q 312.93 221.48 309.99 216.01
  Q 309.53 215.16 310.30 215.71
  Q 310.43 215.81 310.52 215.95
  Q 312.99 220.42 315.78 224.71
  Q 318.00 228.11 322.00 229.21
  Z"
/>
<path fill="#030204" d="
  M 203.27 231.84
  Q 203.53 229.91 203.61 231.85
  Q 203.93 239.11 204.75 247.50
  Q 204.79 247.86 204.68 248.03
  Q 204.39 248.48 204.20 247.79
  Q 202.14 240.20 203.27 231.84
  Z"
/>
<rect fill="#030204" x="-0.38" y="-5.44" transform="translate(109.50,235.66) rotate(37.9)" width="0.76" height="10.88" rx="0.26"/>
<rect fill="#030204" x="-0.41" y="-5.44" transform="translate(262.27,238.38) rotate(-37.6)" width="0.82" height="10.88" rx="0.39"/>
<path fill="#030204" d="
  M 131.94 236.19
  Q 132.50 235.31 133.04 234.96
  Q 133.60 234.59 133.22 235.16
  Q 130.78 238.76 129.37 242.89
  Q 129.30 243.10 129.18 243.19
  Q 129.01 243.33 128.87 243.20
  A 0.49 0.29 -67.8 0 1 128.81 242.77
  Q 129.57 239.87 131.94 236.19
  Z"
/>
<rect fill="#030204" x="-0.33" y="-6.84" transform="translate(130.40,244.94) rotate(32.5)" width="0.66" height="13.68" rx="0.26"/>
<path fill="#030204" d="
  M 187.30 257.15
  Q 189.96 246.04 191.50 242.50
  Q 193.33 238.31 192.26 242.86
  Q 192.19 243.18 192.07 243.50
  Q 184.59 263.12 187.03 284.02
  A 0.36 0.20 89.0 0 1 186.81 284.43
  Q 186.65 284.38 186.58 283.99
  Q 184.10 270.51 187.30 257.15
  Z"
/>
<rect fill="#030204" x="-0.35" y="-5.98" transform="translate(196.21,247.83) rotate(17.5)" width="0.70" height="11.96" rx="0.27"/>
<path fill="#030204" d="
  M 214.86 259.46
  Q 214.14 252.19 211.89 245.18
  A 0.98 0.58 63.4 0 1 211.95 244.35
  Q 212.26 243.98 212.63 244.99
  Q 215.13 251.79 215.79 258.92
  Q 216.42 265.62 214.59 272.94
  Q 212.73 280.38 209.47 287.39
  Q 208.39 289.71 209.01 287.04
  Q 209.06 286.82 209.15 286.59
  Q 212.28 279.15 214.05 271.32
  Q 215.43 265.25 214.86 259.46
  Z"
/>
<path fill="#030204" d="
  M 84.71 349.25
  Q 71.09 335.89 66.58 317.29
  Q 65.31 312.05 64.49 306.71
  Q 61.71 288.40 63.74 270.05
  Q 64.10 266.86 65.21 261.13
  Q 66.07 256.70 66.79 252.25
  Q 67.81 252.32 67.94 251.19
  Q 68.19 248.95 68.48 251.07
  Q 68.50 251.25 68.45 251.43
  Q 59.71 283.95 67.60 316.73
  Q 71.09 331.25 81.97 345.21
  Q 82.88 346.38 84.15 347.14
  Q 84.73 347.49 84.71 349.25
  Z"
/>
<path fill="#030204" d="
  M 269.93 257.30
  Q 269.59 256.13 270.26 257.15
  Q 271.75 259.38 272.49 262.44
  Q 274.05 268.87 275.50 278.75
  Q 275.65 279.77 275.25 280.19
  Q 274.84 280.62 274.75 279.93
  Q 273.22 268.43 269.93 257.30
  Z"
/>
<path fill="#030204" d="
  M 123.02 262.97
  Q 123.75 261.09 123.30 263.48
  Q 123.25 263.74 123.17 264.01
  Q 120.03 273.95 118.80 284.29
  Q 118.75 284.72 118.75 285.23
  Q 118.74 289.87 117.84 286.12
  Q 117.75 285.76 117.78 285.38
  Q 118.84 273.81 123.02 262.97
  Z"
/>
<rect fill="#030204" x="-0.42" y="-8.01" transform="translate(266.82,277.86) rotate(-6.4)" width="0.84" height="16.02" rx="0.27"/>
<rect fill="#030204" x="-0.43" y="-9.11" transform="translate(272.49,288.00) rotate(-6.0)" width="0.86" height="18.22" rx="0.27"/>
<path fill="#030204" d="
  M 196.09 304.58
  Q 196.33 305.95 195.66 304.57
  Q 191.10 295.25 189.56 284.99
  Q 189.30 283.28 189.77 283.72
  Q 189.98 283.92 190.07 284.35
  Q 192.01 294.62 196.01 304.30
  Q 196.07 304.44 196.09 304.58
  Z"
/>
<rect fill="#030204" x="-0.37" y="-6.56" transform="translate(121.89,290.97) rotate(13.9)" width="0.74" height="13.12" rx="0.31"/>
<path fill="#030204" d="
  M 299.50 350.29
  L 299.04 350.25
  Q 298.83 349.43 299.13 348.66
  Q 309.61 321.86 303.35 293.69
  Q 303.17 292.89 303.65 293.07
  Q 303.87 293.16 304.01 293.75
  Q 310.73 322.79 299.50 350.29
  Z"
/>
<path fill="#030204" d="
  M 91.50 352.29
  Q 90.37 354.70 88.71 352.75
  Q 89.47 350.97 89.25 350.25
  Q 81.98 326.64 83.41 301.92
  Q 83.47 300.94 83.86 301.59
  Q 83.99 301.79 83.98 302.26
  Q 83.54 321.55 87.75 341.25
  Q 88.62 345.33 90.68 348.43
  Q 90.88 348.73 91.31 349.10
  Q 92.33 349.95 91.19 350.14
  A 1.21 0.83 4.2 0 0 90.40 350.60
  Q 89.49 352.08 91.50 352.29
  Z"
/>
<path fill="#030204" d="
  M 267.29 370.25
  Q 267.68 368.64 266.50 367.71
  Q 275.54 338.54 273.52 308.02
  Q 273.50 307.74 273.53 307.49
  Q 273.89 304.70 274.15 308.26
  Q 275.54 327.36 272.57 346.17
  Q 271.99 349.90 269.90 358.20
  Q 268.40 364.18 267.29 370.25
  Z"
/>
<path fill="#030204" d="
  M 203.00 386.50
  Q 198.11 382.48 193.94 376.56
  Q 186.11 365.45 181.03 354.13
  Q 172.33 334.74 167.79 314.20
  Q 167.45 312.64 167.08 314.19
  Q 160.25 342.37 158.73 371.00
  Q 158.34 378.43 156.55 386.31
  A 0.58 0.57 13.8 0 0 156.97 387.00
  Q 173.68 391.49 190.75 391.74
  Q 192.04 391.76 196.73 391.42
  Q 199.74 391.21 202.75 391.46
  Q 201.48 392.20 200.75 392.25
  Q 181.56 393.53 164.25 389.75
  Q 159.53 388.72 155.61 388.29
  Q 149.09 387.58 147.01 386.93
  Q 138.82 384.38 132.50 378.29
  Q 133.26 377.95 134.25 378.75
  Q 139.95 383.36 146.80 385.97
  Q 150.15 387.25 153.77 387.25
  A 2.05 2.05 -83.4 0 0 155.77 385.65
  Q 158.35 374.40 158.73 362.76
  Q 159.23 347.73 162.09 332.97
  Q 164.52 320.45 167.25 309.35
  Q 167.97 306.40 168.31 309.42
  Q 168.88 314.48 170.11 319.39
  Q 170.74 321.89 172.84 329.13
  Q 179.38 351.58 191.75 371.52
  Q 196.70 379.52 203.00 386.50
  Z"
/>
<path fill="#030204" d="
  M 259.75 375.29
  Q 253.82 382.65 244.31 387.31
  Q 241.05 388.91 239.01 386.69
  A 0.82 0.75 58.6 0 0 238.21 386.46
  Q 223.56 390.82 206.75 392.25
  Q 204.46 392.45 203.00 391.54
  Q 220.57 391.08 237.74 385.25
  A 0.68 0.67 -16.2 0 0 238.18 384.46
  Q 236.29 376.54 235.13 368.18
  Q 233.18 354.22 231.49 340.22
  Q 229.79 326.09 226.43 311.96
  Q 226.18 310.91 225.79 311.92
  Q 213.69 343.22 206.37 375.69
  Q 205.82 378.16 205.30 381.35
  Q 204.84 384.18 204.34 387.01
  A 0.39 0.37 -70.6 0 1 203.79 387.30
  Q 203.29 387.02 203.00 386.50
  Q 203.87 385.87 203.99 384.81
  Q 204.54 380.12 205.53 375.51
  Q 211.17 349.23 220.49 324.05
  Q 222.06 319.80 223.22 316.28
  Q 224.55 312.25 225.85 308.45
  Q 226.36 306.95 226.75 308.48
  Q 228.07 313.72 229.16 319.00
  Q 229.97 322.95 230.77 329.68
  Q 231.30 334.22 232.01 338.74
  Q 232.78 343.69 233.25 347.80
  Q 235.43 366.49 239.22 384.92
  Q 239.56 386.55 240.51 387.14
  Q 241.94 388.03 243.50 387.00
  Q 245.40 385.75 246.73 385.01
  Q 249.14 383.68 249.96 383.06
  Q 254.97 379.33 259.75 375.29
  Z"
/>
<path fill="#dd9586" d="
  M 203.00 391.54
  L 202.75 391.46
  Q 199.74 391.21 196.73 391.42
  Q 192.04 391.76 190.75 391.74
  Q 173.68 391.49 156.97 387.00
  A 0.58 0.57 13.8 0 1 156.55 386.31
  Q 158.34 378.43 158.73 371.00
  Q 160.25 342.37 167.08 314.19
  Q 167.45 312.64 167.79 314.20
  Q 172.33 334.74 181.03 354.13
  Q 186.11 365.45 193.94 376.56
  Q 198.11 382.48 203.00 386.50
  Q 203.29 387.02 203.79 387.30
  A 0.39 0.37 -70.6 0 0 204.34 387.01
  Q 204.84 384.18 205.30 381.35
  Q 205.82 378.16 206.37 375.69
  Q 213.69 343.22 225.79 311.92
  Q 226.18 310.91 226.43 311.96
  Q 229.79 326.09 231.49 340.22
  Q 233.18 354.22 235.13 368.18
  Q 236.29 376.54 238.18 384.46
  A 0.68 0.67 -16.2 0 1 237.74 385.25
  Q 220.57 391.08 203.00 391.54
  Z"
/>
<path fill="#030204" d="
  M 124.71 370.00
  Q 124.12 369.83 123.71 370.25
  Q 123.28 368.67 121.19 363.06
  Q 118.04 354.63 116.88 343.99
  Q 115.30 329.56 115.79 315.05
  A 1.46 0.97 76.4 0 1 116.11 314.17
  Q 116.71 313.56 116.50 315.50
  Q 116.17 318.57 116.60 327.74
  Q 116.60 327.85 116.82 333.75
  Q 117.49 352.57 124.71 370.00
  Z"
/>
<path fill="#030204" d="
  M 123.71 373.00
  Q 124.05 375.14 121.80 374.50
  Q 106.72 370.25 96.94 358.06
  Q 94.49 355.01 91.71 352.25
  L 92.06 351.30
  Q 92.23 350.86 92.50 351.20
  Q 95.18 354.53 97.90 357.83
  Q 104.72 366.14 114.41 370.63
  Q 114.48 370.67 117.32 372.24
  Q 120.23 373.86 123.71 373.00
  Z"
/>
</svg>
